<?xml version="1.0" encoding="UTF-8" standalone="no"?>
<!-- Created with Inkscape (http://www.inkscape.org/) -->

<svg
   xmlns:dc="http://purl.org/dc/elements/1.1/"
   xmlns:cc="http://creativecommons.org/ns#"
   xmlns:rdf="http://www.w3.org/1999/02/22-rdf-syntax-ns#"
   xmlns:svg="http://www.w3.org/2000/svg"
   xmlns="http://www.w3.org/2000/svg"
   xmlns:sodipodi="http://sodipodi.sourceforge.net/DTD/sodipodi-0.dtd"
   xmlns:inkscape="http://www.inkscape.org/namespaces/inkscape"
   width="210mm"
   height="297mm"
   viewBox="0 0 210 297"
   version="1.1"
   id="svg8"
   inkscape:version="0.92.1 r15371"
   sodipodi:docname="design.svg">
  <defs
     id="defs2" />
  <sodipodi:namedview
     id="base"
     pagecolor="#ffffff"
     bordercolor="#666666"
     borderopacity="1.0"
     inkscape:pageopacity="0.0"
     inkscape:pageshadow="2"
     inkscape:zoom="1.4"
     inkscape:cx="534.01262"
     inkscape:cy="347.54453"
     inkscape:document-units="mm"
     inkscape:current-layer="layer1"
     showgrid="false"
     inkscape:pagecheckerboard="true"
     inkscape:window-width="958"
     inkscape:window-height="991"
     inkscape:window-x="952"
     inkscape:window-y="0"
     inkscape:window-maximized="0" />
  <metadata
     id="metadata5">
    <rdf:RDF>
      <cc:Work
         rdf:about="">
        <dc:format>image/svg+xml</dc:format>
        <dc:type
           rdf:resource="http://purl.org/dc/dcmitype/StillImage" />
        <dc:title></dc:title>
      </cc:Work>
    </rdf:RDF>
  </metadata>
  <g
     inkscape:label="Layer 1"
     inkscape:groupmode="layer"
     id="layer1">
    <circle
       style="opacity:1;fill:#1700ec;fill-opacity:0.30582523;stroke:#1700ec;stroke-width:1.36500001;stroke-linecap:round;stroke-linejoin:miter;stroke-miterlimit:4;stroke-dasharray:none;stroke-dashoffset:261.92126465;stroke-opacity:1"
       id="path4485"
       cx="47.625"
       cy="106.87797"
       r="5.6696434" />
    <path
       style="opacity:1;fill:#1700ec;fill-opacity:0.30582527;stroke:#1700ec;stroke-width:1.36500001;stroke-linecap:round;stroke-linejoin:miter;stroke-miterlimit:4;stroke-dasharray:none;stroke-dashoffset:261.92126465;stroke-opacity:1"
       id="path4487"
       d="m 87.9999,50.471792 c -0.515425,-0.503264 -1.12331,-0.885653 -1.731415,-1.264158 -0.851075,-0.470437 -1.772693,-0.7663 -2.698176,-1.04711 -1.364065,-0.339918 -2.760639,-0.511839 -4.159348,-0.627883 -1.846736,-0.137832 -3.695954,-0.136813 -5.544365,-0.0523 -1.584782,0.07185 -3.172383,0.208402 -4.718415,0.575045 -0.401875,0.10313 -0.540165,0.116155 -0.901052,0.286115 -0.110849,0.05221 -0.426704,0.241099 -0.320137,0.180629 5.675262,-3.220339 3.428269,-2.455685 2.728846,-1.312881 -0.0195,0.100047 -0.05853,0.19821 -0.05846,0.300138 5.29e-4,0.89462 0.961414,2.359842 1.427255,3.070383 1.695783,2.341547 3.736615,4.399534 5.734524,6.479146 1.854207,1.885368 3.546572,3.914283 4.906883,6.18359 0.793818,1.407306 1.36449,2.940082 1.51943,4.552032 -0.03143,0.506685 -0.0024,0.684673 -0.185258,1.159693 -0.09869,0.256185 -0.366221,0.720077 -0.611116,0.869852 -3.73802,2.286103 -2.486613,2.026745 -4.699186,2.302248 -1.496316,0.01617 -3.015157,-0.210346 -4.448563,-0.64575 -0.762059,-0.231479 -2.289149,-0.827572 -3.012583,-1.102662 -1.97857,-0.794427 -3.902784,-1.731631 -5.691844,-2.89574 -0.89285,-0.580959 -1.32471,-0.926393 -2.163704,-1.556694 -0.847302,-0.667454 -1.61902,-1.417514 -2.376673,-2.182355 0,0 3.187515,-1.945431 3.187515,-1.945431 v 0 c 0.719823,0.766826 1.455962,1.516959 2.274692,2.180958 2.358255,1.848839 4.8701,3.390016 7.69888,4.425354 2.422689,0.863796 4.937037,1.713363 7.548345,1.444604 1.717485,-0.432959 1.260332,-0.399934 -1.886857,1.440659 -0.145876,0.08531 0.279611,-0.19318 0.398928,-0.312857 0.387948,-0.389122 0.529074,-0.883417 0.569984,-1.417526 -0.09117,-1.572652 -0.57589,-3.080073 -1.331902,-4.461425 -1.28692,-2.274205 -2.902149,-4.320839 -4.727382,-6.19156 -2.002131,-2.118595 -4.115181,-4.144634 -5.922692,-6.436151 -0.587082,-0.833675 -1.538399,-2.172729 -1.701123,-3.211229 -0.02162,-0.137922 -0.0057,-0.279149 -0.0086,-0.418722 0.541375,-1.706602 1.787052,-1.553046 3.884071,-2.751629 0.368982,-0.210897 0.824968,-0.243372 1.225229,-0.352425 1.543273,-0.282258 3.110643,-0.408472 4.677445,-0.466384 1.865365,-0.07128 3.731426,-0.05617 5.594577,0.0735 1.436738,0.117559 2.876841,0.281593 4.275193,0.64422 0.959358,0.284465 1.904759,0.614961 2.776577,1.11568 0.631587,0.38359 1.237049,0.796155 1.820056,1.250463 0,0 -3.349562,2.118569 -3.349562,2.118569 z"
       inkscape:connector-curvature="0" />
    <path
       style="opacity:1;fill:#1700ec;fill-opacity:0.30582527;stroke:#1700ec;stroke-width:1.36500001;stroke-linecap:round;stroke-linejoin:miter;stroke-miterlimit:4;stroke-dasharray:none;stroke-dashoffset:261.92126465;stroke-opacity:1"
       id="path4489"
       d="m 102.43504,85.938719 c -0.20855,-0.232236 -0.48923,-0.514004 -0.81137,-0.579829 -0.0969,-0.01982 -0.32484,0.04698 -0.41423,0.06887 -0.97056,1.087329 -0.045,0.01461 3.0213,-1.640637 0.0895,-0.04831 -0.15273,0.135576 -0.21745,0.214027 -0.23565,0.285618 -0.38333,0.637471 -0.53827,0.969367 -0.21635,0.547254 -0.48277,1.129202 -0.16189,1.676414 0.40874,0.409493 0.97778,0.55005 1.53049,0.644162 0.90417,0.180761 1.76635,-0.104394 2.633,-0.330314 0.11138,-0.04929 0.72941,-0.321206 0.84623,-0.37919 0.1274,-0.06323 0.49819,-0.274622 0.37496,-0.203618 -5.36839,3.092969 -3.37356,2.042644 -2.26461,1.195708 0.62808,-0.514528 1.22049,-1.07179 1.75091,-1.686574 0.44398,-0.517636 0.75066,-1.074023 0.85421,-1.748689 0.0778,-0.756417 -0.14634,-1.3912 -0.57516,-1.99789 -0.56896,-0.743762 -1.34076,-1.281202 -2.09927,-1.812517 -0.84457,-0.515403 -1.76831,-0.883563 -2.72536,-1.125956 -0.95202,-0.292214 -1.94164,-0.396732 -2.93083,-0.459653 -0.64617,-0.01156 -1.327712,-0.02413 -1.967035,0.100063 -0.132545,0.02574 -0.674026,0.213868 -0.807691,0.259165 -0.118472,0.05439 -0.239752,0.103044 -0.355417,0.163182 -1.940499,1.008933 4.208163,-2.53727 2.321613,-1.315818 -0.113017,0.07317 -0.223107,0.150791 -0.333571,0.227766 -0.118002,0.08223 -0.234535,0.166545 -0.351803,0.24982 -0.811493,0.617982 -1.538023,1.343501 -2.229514,2.091264 -0.709409,0.789157 -1.07025,1.513623 -1.242801,2.56 -0.08535,1.022593 0.17866,1.980837 0.634262,2.885077 0.506637,0.96198 1.166598,1.827554 1.899695,2.626162 0.912958,0.80595 1.992272,1.379254 3.100392,1.8664 0.71859,0.325405 1.40648,0.724733 2.0541,1.174895 0.52744,0.420965 1.07777,0.805781 1.55615,1.283528 0.46572,0.478187 0.70537,1.075611 0.93253,1.689505 0.27795,0.788435 0.25982,1.595091 0.16344,2.412746 -0.0705,0.804847 -0.42969,1.494115 -0.89524,2.136637 -1.31343,1.394568 -3.09202,2.586028 -5.02248,2.784348 -1.130893,-0.13629 -2.043269,-0.85019 -2.943019,-1.49081 -1.034669,-0.768435 -1.999117,-1.624039 -3.003909,-2.430304 0,0 3.206993,-2.01408 3.206993,-2.01408 v 0 c 1.000437,0.800283 1.950842,1.66429 3.003455,2.397562 0.8614,0.570608 1.77684,1.261425 2.86324,1.18967 1.44577,-0.315577 2.48391,-1.300271 -2.4571,1.632732 -0.0843,0.0501 0.17894,-0.0814 0.26288,-0.13208 0.23846,-0.14404 0.28766,-0.21254 0.49037,-0.40561 0.51406,-0.54599 0.90458,-1.203252 1.01037,-1.954459 0.12719,-0.749713 0.13945,-1.497534 -0.1034,-2.227927 -0.20155,-0.561612 -0.42362,-1.103095 -0.84913,-1.537105 -0.46707,-0.453424 -0.99439,-0.835035 -1.51115,-1.229503 -0.633347,-0.425971 -1.288535,-0.823761 -1.980679,-1.147394 -1.119281,-0.555929 -2.218323,-1.172975 -3.152913,-2.013101 -0.747964,-0.830207 -1.473716,-1.701046 -1.999758,-2.692276 -0.473395,-0.976963 -0.754372,-2.009166 -0.700519,-3.104631 0.1005,-1.146606 0.376021,-1.87806 1.120876,-2.762874 0.677182,-0.765964 1.413931,-1.482289 2.177716,-2.161503 1.697591,-1.206275 3.441028,-2.428399 5.412847,-3.130722 0.92441,-0.250791 1.88158,-0.297 2.83592,-0.228799 1.00909,0.07398 2.00955,0.228545 2.98146,0.517988 0.98036,0.287761 1.93381,0.681228 2.79114,1.243322 0.7915,0.562338 1.60514,1.128649 2.20479,1.904495 0.47567,0.681247 0.75089,1.393915 0.70218,2.241341 -0.0298,0.756219 -0.27392,1.368123 -0.74844,1.960917 -0.52708,0.641646 -1.11109,1.226262 -1.74357,1.765771 -1.65461,1.392044 -3.59213,2.473518 -5.63111,3.185604 -0.91152,0.230048 -1.82799,0.420995 -2.76589,0.211484 -0.6537,-0.148571 -1.29619,-0.369255 -1.725039,-0.916 -0.443523,-0.784625 -0.265954,-1.206087 0.01738,-2.014331 0.800249,-1.910707 1.717339,-3.164851 4.454259,-3.504949 0.59195,0.04859 1.06355,0.398441 1.4588,0.826479 0,0 -3.40833,2.022671 -3.40833,2.022671 z"
       inkscape:connector-curvature="0" />
    <path
       style="opacity:1;fill:#1700ec;fill-opacity:1;stroke:none;stroke-width:1.36500001;stroke-linecap:round;stroke-linejoin:miter;stroke-miterlimit:4;stroke-dasharray:none;stroke-dashoffset:261.92126465;stroke-opacity:1"
       id="path4499"
       d="m 88.011245,146.62028 c -0.661622,0.12171 -1.341019,0.12234 -1.997546,0.26589 -0.279135,0.0603 -0.324924,0.0488 -0.570508,0.17997 -0.08014,0.0428 -0.308152,0.1925 -0.229055,0.14778 5.549567,-3.13758 3.607366,-2.37223 2.652744,-1.35859 -0.521388,0.6101 -0.77403,1.36372 -0.955982,2.13137 -0.266321,1.07095 -0.04059,2.12111 0.238641,3.16255 0.201952,0.83635 0.541253,1.59312 1.118974,2.23022 0.410519,0.40131 0.933209,0.4991 1.482222,0.54413 1.21748,-0.21953 3.867414,-2.0171 -2.748844,1.65077 -0.05566,0.0309 0.235601,-0.12185 0.361778,-0.42548 0.07519,-0.68358 -0.436488,-1.28829 -0.81444,-1.81336 -0.498073,-0.6497 -1.049285,-1.25564 -1.693238,-1.76186 -0.623528,-0.49969 -1.329529,-0.87095 -2.062065,-1.1817 -0.607594,-0.24501 -1.260525,-0.2833 -1.907093,-0.3074 -0.09712,0.0144 -0.194407,0.0277 -0.291361,0.0432 -0.216689,0.0346 -0.360453,0.0478 -0.560806,0.14408 -0.09985,0.048 -0.380481,0.22703 -0.284054,0.1725 3.030559,-1.7136 4.003641,-2.38345 2.704079,-1.50501 -0.543031,0.4011 -0.921809,0.93964 -1.144262,1.57098 -0.212929,0.70017 -0.17372,1.41093 -0.07016,2.12367 0.134853,0.83022 0.549116,1.49699 1.071719,2.13424 0.48106,0.68001 1.171823,1.09615 1.848239,1.55117 0.461893,0.3082 0.986845,0.50618 1.462008,0.78658 0.397801,0.21142 0.796512,0.42867 1.142449,0.71943 0.460251,0.4035 0.747096,0.9467 0.990156,1.49945 0.240019,0.58293 0.287546,1.20577 0.313142,1.82769 0.02698,0.70794 -0.05759,1.41596 -0.333137,2.06969 -0.885002,1.81361 -2.770184,2.2435 -4.563589,3.25781 -0.109899,0.0249 -0.505703,0.12195 -0.620873,0.11894 -0.505307,-0.0132 -1.035677,-0.25078 -1.494536,-0.43545 -0.456563,-0.20809 -0.909865,-0.41724 -1.374929,-0.6057 0,0 3.207856,-2.14508 3.207856,-2.14508 v 0 c 0.463651,0.19227 0.921068,0.39879 1.389854,0.57838 0.669208,0.22203 1.302173,0.38756 1.967431,0.0517 -1.031166,0.60503 -2.063263,1.20848 -3.093498,1.81509 -0.0786,0.0463 0.162647,-0.0835 0.238546,-0.13405 0.339076,-0.22599 0.613479,-0.51423 0.782965,-0.88811 0.355783,-0.61668 0.418267,-1.18559 0.409506,-1.89139 -0.01921,-0.57384 -0.04659,-1.15485 -0.245692,-1.69992 -0.210693,-0.50262 -0.477953,-0.97934 -0.9165,-1.31832 -0.34643,-0.25881 -0.726432,-0.46232 -1.106573,-0.66681 -0.491122,-0.26034 -0.979476,-0.52803 -1.438214,-0.84343 -0.695534,-0.48617 -1.408067,-0.94205 -1.905518,-1.64833 -0.554088,-0.6935 -0.994873,-1.42231 -1.164225,-2.30818 -0.155604,-0.75878 -0.202298,-1.51167 -0.03449,-2.27549 0.182399,-0.704 0.510728,-1.31578 1.059934,-1.80858 1.514563,-1.20085 3.24543,-2.56745 5.237639,-2.57603 0.677638,0.0511 1.354698,0.1358 1.975361,0.43352 0.744024,0.35045 1.46314,0.74532 2.095119,1.27866 0.662217,0.54223 1.256212,1.15066 1.75977,1.84565 0.436163,0.61322 0.971222,1.29279 1.011399,2.06752 -0.01077,0.1898 -0.03001,0.60645 -0.230421,0.72722 -1.687398,1.01682 -2.507445,2.14449 -4.1403,2.04294 -0.621414,-0.10405 -1.183984,-0.31547 -1.618195,-0.79568 -0.592846,-0.70112 -0.952965,-1.51943 -1.148783,-2.41746 -0.28734,-1.08197 -0.584883,-2.18181 -0.359376,-3.30487 0.152339,-0.80077 0.371877,-1.61318 0.852247,-2.2848 1.089718,-1.57093 3.022087,-2.49242 4.87304,-2.86016 0.688486,-0.0899 1.379889,-0.16642 2.070439,-0.23571 0,0 -3.19899,2.3242 -3.19899,2.3242 z"
       inkscape:connector-curvature="0" />
    <path
       style="opacity:1;fill:#1700ec;fill-opacity:1;stroke:none;stroke-width:1.36500001;stroke-linecap:round;stroke-linejoin:miter;stroke-miterlimit:4;stroke-dasharray:none;stroke-dashoffset:261.92126465;stroke-opacity:1"
       id="path4501"
       d="m 76.789126,176.51347 c -0.132628,-0.5131 -0.533469,-0.80502 -0.908601,-1.13666 -0.399494,-0.30192 -0.89146,-0.45428 -1.374251,-0.56621 -0.252291,-0.054 -0.538176,-0.075 -0.791961,-0.004 -0.06853,0.0191 -0.254897,0.12623 -0.192905,0.0913 3.341729,-1.8815 4.147208,-2.61557 3.076932,-1.666 -0.334706,0.57861 -0.294505,1.29922 -0.308481,1.94739 -0.03208,0.78722 -0.02302,1.31071 0.338027,2.01403 0.274217,0.39487 0.729401,0.6088 1.155689,0.80392 0.156446,0.0539 0.286967,0.12393 0.457981,0.0962 0.05719,-0.009 0.208756,-0.10033 0.158231,-0.072 -1.111676,0.62409 -2.236412,1.22498 -3.342206,1.85943 -0.01929,0.0111 0.05947,0.044 0.06292,0.0221 0.0065,-0.0416 -0.03202,-0.0778 -0.04802,-0.11674 -0.435832,-0.54392 -1.067702,-0.84945 -1.65091,-1.20111 -0.36426,-0.17233 -0.827132,-0.45511 -1.255091,-0.40604 -0.07818,0.009 -0.146923,0.0564 -0.220387,0.0846 -1.159518,0.70517 -2.884657,1.54702 2.567482,-1.44541 0.09031,-0.0496 -0.161525,0.12829 -0.236479,0.19897 -0.189997,0.17914 -0.248401,0.2672 -0.408421,0.46883 -0.434959,0.54168 -0.631899,1.13913 -0.685258,1.82321 0.01188,0.75373 0.370396,1.34349 0.879763,1.86582 0.454192,0.36932 1.01473,0.55026 1.492071,0.88488 0.513709,0.279 0.915881,0.69907 1.27473,1.15269 0.35968,0.50612 0.710761,1.02577 0.995476,1.57857 0.334151,0.55111 0.475639,1.15862 0.562454,1.78883 0.095,0.68232 0.02313,1.2019 -0.404873,1.74848 -1.453364,1.27417 -3.209957,2.62374 -5.190596,2.55945 -1.16577,-0.0532 -2.239264,-0.5827 -3.265715,-1.09411 -1.138176,-0.59957 -2.241386,-1.24585 -3.451508,-1.69166 -0.587893,-0.17526 -0.301167,-0.1007 -0.859144,-0.22762 0,0 3.205004,-2.20419 3.205004,-2.20419 v 0 c 0.556037,0.16789 0.271007,0.0733 0.853969,0.28727 1.183296,0.5062 2.295384,1.14881 3.440705,1.73303 1.012343,0.48086 2.076254,0.94916 3.221857,0.89397 0.345586,-0.0392 0.382863,-0.0258 0.70866,-0.12956 0.100767,-0.0321 0.386411,-0.169 0.296032,-0.11409 -5.422156,3.29456 -3.703809,2.24044 -2.588696,1.4915 0.545869,-0.41931 0.630846,-0.74772 0.565004,-1.42997 -0.066,-0.58913 -0.188103,-1.15519 -0.501973,-1.66852 -0.263564,-0.53309 -0.609052,-1.02574 -0.955754,-1.50716 -0.3433,-0.42143 -0.740791,-0.77981 -1.216784,-1.04741 -0.508622,-0.32218 -1.090309,-0.53424 -1.520677,-0.97052 -0.559173,-0.60765 -0.957617,-1.30285 -1.006486,-2.14686 -0.0088,-0.73758 0.09863,-1.41226 0.556824,-2.01526 1.048043,-1.65039 2.971715,-2.61514 4.823883,-3.13951 0.586341,0.0281 1.120582,0.22991 1.609503,0.55596 0.638257,0.39636 1.307549,0.78013 1.797044,1.3631 0.01714,0.0302 0.296471,0.48264 0.225785,0.5306 -2.140246,1.45207 -2.563735,2.53444 -4.227867,1.80457 -0.497141,-0.25503 -0.999278,-0.5222 -1.285488,-1.02574 -0.368901,-0.75466 -0.448472,-1.35754 -0.388319,-2.19882 0.0044,-0.7078 -0.04396,-1.43711 0.157284,-2.12362 0.708613,-1.72448 3.016134,-2.65163 4.751147,-2.22707 0.534435,0.15161 1.065472,0.335 1.484805,0.71498 0.409416,0.36229 0.814268,0.72334 1.015942,1.24885 0,0 -3.448349,1.96343 -3.448349,1.96343 z"
       inkscape:connector-curvature="0" />
    <path
       style="opacity:1;fill:#1700ec;fill-opacity:1;stroke:none;stroke-width:1.36500001;stroke-linecap:round;stroke-linejoin:miter;stroke-miterlimit:4;stroke-dasharray:none;stroke-dashoffset:261.92126465;stroke-opacity:1"
       id="path4503"
       d="m 70.213568,222.96268 c 0.204828,0.61286 0.333434,1.24437 0.417412,1.88387 0.08675,0.59618 0.07981,1.18291 -0.05125,1.77003 -0.733853,1.71474 -3.21243,2.83011 -4.68409,3.27227 -0.582864,0.15665 -1.146721,0.11782 -1.712947,-0.0725 -0.801153,-0.31994 -1.233977,-1.01177 -1.635744,-1.73356 -0.399151,-0.75519 -0.561817,-1.59365 -0.652616,-2.43437 -0.02331,-0.69774 0.110254,-1.38164 0.473911,-1.97903 1.243086,-1.50133 3.14235,-2.56841 5.068601,-2.87839 0.75786,0.0826 1.281854,0.53186 1.731158,1.11434 0.459844,0.64844 0.73442,1.37305 0.868638,2.1512 0.113919,0.73384 0.150336,1.46796 0.01143,2.19902 -0.677693,1.76 -2.82616,2.66605 -4.64956,2.9115 -0.422129,0.0266 -0.903697,0.0125 -1.303888,-0.14964 -0.06696,-0.0271 -0.580268,-0.31935 -0.652653,-0.3602 -0.589878,-0.33157 -1.035962,-0.8232 -1.430766,-1.362 -0.32032,-0.47473 -0.356468,-0.94723 -0.03166,-1.41876 1.306978,-0.97525 0.508619,-0.39363 3.841043,-2.21895 0.328168,-0.17976 0.743398,-0.17345 1.082503,-0.0614 0.54291,0.13729 0.744959,0.53701 0.995839,0.99224 0.166934,0.30537 0.221433,0.83008 0.654042,0.82366 0.06009,-0.005 0.122053,0.001 0.180266,-0.0145 0.122084,-0.0328 0.239281,-0.0866 0.347594,-0.15177 0.05611,-0.0338 0.206999,-0.15912 0.149905,-0.12703 -3.164618,1.77878 -4.139343,2.70748 -3.0826,1.7225 0.289518,-0.27453 0.479404,-0.64063 0.645756,-0.99936 0.252505,-0.53168 0.421401,-1.0973 0.537596,-1.67285 0.123214,-0.63758 0.29106,-1.26359 0.460872,-1.88972 0.127154,-0.60472 0.323903,-1.19103 0.531416,-1.77204 0.232288,-0.64089 0.415883,-1.29837 0.618048,-1.94919 0.190548,-0.54448 0.393893,-1.08162 0.56415,-1.633 0.144727,-0.46176 0.306229,-0.88513 0.652087,-1.23201 1.044646,1.72543 2.552538,-2.28299 4.079819,-2.13812 0.280318,0.0266 0.591087,0.18909 0.839065,0.30964 0.57748,0.28375 1.149178,0.57757 1.759427,0.78708 0.727186,0.23333 1.41905,0.56051 2.143574,0.80021 0.592495,0.18665 1.118005,0.48221 1.622923,0.83807 1.669584,1.34295 1.805098,0.008 -2.592687,2.58898 -0.282593,-0.21774 -0.564713,-0.44018 -0.875532,-0.62045 -0.07132,-0.0305 -0.142635,-0.061 -0.21395,-0.0916 0,0 3.285489,-2.17024 3.285489,-2.17024 v 0 c 0.07902,0.0413 0.158039,0.0826 0.237057,0.12388 0.356436,0.22597 0.719412,0.46153 1.019857,0.75869 -3.635391,2.29842 -2.399776,2.83404 -4.17331,1.52638 -0.486431,-0.32246 -0.990584,-0.58841 -1.550601,-0.76439 -0.714841,-0.27191 -1.415214,-0.58391 -2.149763,-0.80224 -0.604078,-0.23988 -1.186373,-0.52783 -1.778802,-0.79395 -0.169429,-0.0585 -0.314433,-0.1224 -0.496295,-0.1321 -1.127122,-0.0601 -4.965197,3.14402 2.511343,-1.6719 -0.445619,0.21841 -0.617,0.55751 -0.75044,1.02313 -0.2334,0.52404 -0.340347,1.10678 -0.58623,1.62935 -0.234987,0.64461 -0.404143,1.31265 -0.61591,1.96519 -0.227179,0.55834 -0.405828,1.14236 -0.539329,1.72953 -0.159658,0.62447 -0.360162,1.23643 -0.488683,1.86934 -0.09721,0.59837 -0.236905,1.18612 -0.461171,1.75088 -0.185545,0.383 -0.34212,0.77279 -0.58111,1.12679 -1.101865,1.09809 -0.224867,0.24623 -3.651239,2.26123 -0.255503,0.15026 -0.600959,0.1079 -0.868974,0.0384 -0.449622,-0.24438 -0.629407,-0.61753 -0.803637,-1.08242 -0.204328,-0.37597 -0.34783,-0.6396 -0.814211,-0.6953 -0.234442,0.003 -0.437877,0.0513 -0.6585,0.13581 -0.08776,0.0336 -0.338889,0.16148 -0.258117,0.11344 2.755138,-1.63886 4.223885,-2.36824 2.892391,-1.70165 -0.481558,0.16382 -0.488673,0.49195 -0.242591,0.88885 0.35619,0.50138 0.757504,0.94453 1.316952,1.22599 0.574879,0.29944 1.16889,0.4304 1.814365,0.27927 1.347253,-0.35174 2.761784,-1.55006 -2.570448,1.64992 -0.07518,0.0451 0.16747,-0.0584 0.240035,-0.10759 0.161173,-0.10932 0.209582,-0.23412 0.304959,-0.39585 0.241564,-0.66404 0.177815,-1.37179 0.09368,-2.06197 -0.122811,-0.71492 -0.346136,-1.38224 -0.781039,-1.97389 -0.393626,-0.46744 -0.85189,-0.85052 -1.503513,-0.74959 -0.24614,0.0636 -0.349044,0.0802 -0.585259,0.18233 -0.0999,0.0432 -0.385379,0.20214 -0.291928,0.14633 5.785292,-3.45523 3.4426,-2.27274 2.527475,-1.37609 -0.107831,0.12487 -0.29323,0.32012 -0.362289,0.47591 -0.172146,0.38834 -0.186383,0.84017 -0.237487,1.25388 0.05365,0.79567 0.168717,1.5907 0.538612,2.30923 0.360688,0.63933 0.777232,1.23146 1.519261,1.44059 0.532514,0.10628 1.054002,0.084 1.562283,-0.12726 1.313743,-0.64678 0.450879,-0.22971 -2.828047,1.68495 -0.08995,0.0525 0.181491,-0.10328 0.265253,-0.16519 0.198141,-0.14647 0.297101,-0.26054 0.448223,-0.45304 0.05759,-0.0734 0.108942,-0.15141 0.163412,-0.22712 0.183454,-0.53507 0.195498,-1.07766 0.127383,-1.63744 -0.06328,-0.60463 -0.155927,-1.21305 -0.403508,-1.77367 0,0 3.45726,-1.93062 3.45726,-1.93062 z"
       inkscape:connector-curvature="0" />
    <path
       style="opacity:1;fill:#1700ec;fill-opacity:1;stroke:none;stroke-width:1.36500001;stroke-linecap:round;stroke-linejoin:miter;stroke-miterlimit:4;stroke-dasharray:none;stroke-dashoffset:261.92126465;stroke-opacity:1"
       id="path4505"
       d="m 95.239699,227.21511 c -0.108887,-0.64047 -0.596599,-1.07602 -1.12943,-1.39283 -0.684638,-0.34725 -1.419423,-0.50009 -2.175505,-0.58329 -0.74708,-0.0504 -1.531284,-0.15695 -2.224873,0.17648 -1.332738,0.88126 0.459819,-0.31341 2.767941,-1.53703 0.104521,-0.0554 -0.177064,0.15736 -0.258394,0.24327 -0.267793,0.28285 -0.440833,0.58425 -0.60665,0.93297 -0.345107,0.84312 -0.282507,1.69014 -0.04218,2.54674 0.357169,1.16631 0.997027,1.99131 1.870382,2.81513 0.716294,0.61752 1.572692,0.9901 2.490214,1.18184 0.735232,0.13701 1.466596,0.13751 2.201582,0.0236 1.22928,-0.57404 3.027174,-1.57509 -2.476061,1.45163 -0.104958,0.0577 0.197839,-0.13539 0.292108,-0.2093 0.28403,-0.22267 0.289555,-0.24878 0.535077,-0.51129 0.47742,-0.57922 0.795663,-1.25374 1.008843,-1.96826 0.221263,-0.71461 0.344811,-1.44947 0.410377,-2.193 0.0678,-0.85399 0.03879,-1.71079 0.09588,-2.56505 0.101137,-1.05251 0.148426,-2.10793 0.274685,-3.15782 0.117877,-0.97244 0.261609,-1.94551 0.491469,-2.8983 0.215193,-0.87097 0.52224,-1.71898 0.905772,-2.52951 0.319886,-0.67827 0.648964,-1.35446 1.046614,-1.99104 0.27328,-0.42794 0.60986,-0.80321 0.97681,-1.15112 1.75995,-1.81904 3.29457,-3.33809 4.57746,-1.50833 0.43696,0.70329 0.90818,1.37388 1.45299,1.99738 0.46295,0.45636 0.98185,0.85696 1.59495,1.08229 0.63029,0.15141 1.25979,0.30002 1.90346,0.38555 0.41969,0.041 0.21158,0.0238 0.62431,0.0519 0,0 -3.19151,2.27694 -3.19151,2.27694 v 0 c -0.41824,-0.0438 -0.20729,-0.0186 -0.63279,-0.0762 -0.66173,-0.11103 -1.32558,-0.24412 -1.96039,-0.4639 -0.63875,-0.29694 -1.19849,-0.72521 -1.67338,-1.24666 -0.53982,-0.63542 -1.00275,-1.32244 -1.48076,-2.00449 -0.11665,-0.13292 -0.19501,-0.25935 -0.36025,-0.3317 -0.15555,-0.0681 -0.22979,0.0627 -0.22485,0.0598 3.18046,-1.87313 4.12435,-2.68951 3.00749,-1.74295 -0.32304,0.38618 -0.75794,0.67165 -1.02164,1.11205 -0.46612,0.57989 -0.77201,1.27977 -1.0899,1.94789 -0.42312,0.77438 -0.73547,1.61109 -0.96012,2.46377 -0.26766,0.9298 -0.3844,1.89913 -0.52162,2.85473 -0.13179,1.04268 -0.20775,2.08804 -0.28148,3.1365 -0.0546,0.85044 -0.0142,1.70334 -0.0611,2.5546 -0.0574,0.76172 -0.15184,1.52246 -0.38197,2.25429 -0.17187,0.76267 -0.48489,1.4829 -0.94254,2.12009 -0.203783,0.29068 -0.458056,0.64352 -0.771026,0.8316 -1.304171,0.78376 -2.712437,1.95962 -4.303239,2.30597 -0.758095,0.0704 -1.519873,0.0193 -2.263005,-0.152 -0.95258,-0.25876 -1.835563,-0.6963 -2.558629,-1.38113 -0.871014,-0.85269 -1.619179,-1.79177 -1.991517,-2.97359 -0.297857,-0.93987 -0.41952,-1.80766 -0.105444,-2.7661 0.704935,-2.04113 2.704333,-2.85326 4.721034,-3.67447 0.762744,-0.16684 1.535018,-0.10643 2.30636,-0.0182 0.800415,0.10929 1.584992,0.30863 2.291212,0.71559 0.597636,0.40893 1.110745,0.93062 1.337564,1.63671 0,0 -3.494338,1.86823 -3.494338,1.86823 z"
       inkscape:connector-curvature="0" />
    <path
       style="opacity:1;fill:#1700ec;fill-opacity:1;stroke:none;stroke-width:1.36500001;stroke-linecap:round;stroke-linejoin:miter;stroke-miterlimit:4;stroke-dasharray:none;stroke-dashoffset:261.92126465;stroke-opacity:1"
       id="path4507"
       d="m 136.37568,243.70766 c -0.53634,-0.48454 -1.18647,-0.82468 -1.85066,-1.09814 -0.59774,-0.30431 -1.23467,-0.47562 -1.89743,-0.55136 0.21955,-0.3183 -0.92941,0.45672 -0.73915,0.35359 1.03669,-0.56191 2.02613,-1.21302 3.08777,-1.72621 0.12196,-0.059 -0.16,0.22001 -0.22152,0.34069 -0.0662,0.12992 -0.10652,0.2715 -0.15978,0.40725 -0.27871,0.82205 -0.24707,1.65389 -0.0813,2.49117 0.214,0.91795 0.86957,1.56868 1.59547,2.11985 0.78151,0.50123 1.55749,0.60269 2.46146,0.54276 0.4135,-0.0282 0.84117,-0.12613 1.20484,-0.33382 0.0819,-0.0468 0.31863,-0.20143 0.23658,-0.15499 -1.03823,0.5875 -2.0704,1.18565 -3.10559,1.77848 0.51006,-0.33684 0.92959,-0.78454 1.32281,-1.24761 0.33349,-0.38431 0.50878,-0.84127 0.54147,-1.34476 -0.0576,-0.64723 -0.33597,-1.27084 -0.54675,-1.88601 -0.27142,-0.65576 -0.59446,-1.28831 -0.90323,-1.92699 -0.38491,-0.70553 -0.72828,-1.42213 -0.88852,-2.21109 -0.20035,-1.3472 -0.16678,-2.70544 -0.10955,-4.06079 0.0634,-0.93101 0.21783,-1.85471 0.55766,-2.72554 0.43541,-0.99292 0.941,-1.95068 1.51113,-2.87213 0.99584,-1.51791 2.08754,-1.7046 4.15276,-2.71664 0.0528,-0.0259 0.46907,0.24516 0.49047,0.25831 0.60513,0.3486 1.07655,0.89555 1.56098,1.39151 0.44686,0.51055 0.98479,0.92553 1.47011,1.39547 0,0 -3.35082,2.05837 -3.35082,2.05837 v 0 c -0.4799,-0.4751 -0.98715,-0.92241 -1.44609,-1.41888 -0.4611,-0.46519 -0.9137,-0.97711 -1.5199,-1.2528 -1.20038,-0.34495 -4.23743,2.30707 2.89335,-1.89796 0.29876,-0.17618 -1.03568,0.5546 -0.70672,0.62336 -0.58484,0.89086 -1.13802,1.79932 -1.50793,2.80563 -0.40827,0.82328 -0.57347,1.72524 -0.68416,2.63256 -0.0932,1.31699 -0.15031,2.64125 0.10065,3.9468 0.17912,0.74588 0.49879,1.44533 0.86085,2.12061 0.32222,0.64968 0.67625,1.28378 0.9391,1.96179 0.11708,0.33655 0.21295,0.67903 0.34087,1.01172 0.0631,0.16412 0.21184,0.49891 0.25317,0.66769 0.0245,0.1 0.0248,0.20438 0.0373,0.30657 0.0348,0.56793 -0.10872,1.12103 -0.43143,1.59478 -0.38889,0.48734 -0.80096,0.95803 -1.28568,1.35357 -1.72937,1.01582 -3.13842,2.38021 -5.13126,2.44006 -0.93913,-0.009 -1.81959,-0.21572 -2.58808,-0.7848 -0.76144,-0.63312 -1.51622,-1.34333 -1.7625,-2.3389 -0.17507,-0.89768 -0.24449,-1.78431 0.006,-2.68008 0.0151,-0.052 0.23041,-0.83471 0.29209,-0.8792 0.49268,-0.35534 2.8911,-2.53945 4.46335,-2.40416 0.67398,0.12317 1.31318,0.34997 1.92663,0.65674 0.68676,0.31819 1.3519,0.68222 1.96045,1.13496 0,0 -3.34956,2.11857 -3.34956,2.11857 z"
       inkscape:connector-curvature="0" />
    <path
       style="opacity:1;fill:#1700ec;fill-opacity:1;stroke:none;stroke-width:1.36500001;stroke-linecap:round;stroke-linejoin:miter;stroke-miterlimit:4;stroke-dasharray:none;stroke-dashoffset:261.92126465;stroke-opacity:1"
       id="path4509"
       d="m 142.01186,184.71925 c -0.0469,-0.6518 -0.35601,-1.22698 -0.6607,-1.79062 -0.3447,-0.62964 -0.81336,-1.13322 -1.38354,-1.55832 -0.557,-0.39267 -1.21309,-0.4846 -1.87457,-0.53783 -0.55746,0.0149 -1.16919,-0.13434 -1.69355,0.0833 0.13259,-0.12878 -0.6783,0.33594 -0.51366,0.24245 5.81745,-3.30335 3.41929,-2.2087 2.55601,-1.30098 -0.40364,0.42441 -0.59726,0.76211 -0.92422,1.25117 -0.67596,1.05986 -1.07319,2.23392 -1.27186,3.46654 -0.13549,0.93624 0.17515,1.73203 0.62363,2.53126 0.5999,1.11314 1.4966,2.00568 2.46768,2.79646 0.7323,0.61235 1.54557,1.07253 2.46847,1.31156 0.77719,0.18479 1.54461,0.13108 2.3177,-0.028 0.81078,-0.20259 1.54966,-0.59068 2.32545,-0.88673 1.2216,-0.62171 3.07697,-1.74237 -2.50724,1.46031 -0.0824,0.0473 0.16336,-0.0971 0.24314,-0.14864 0.22855,-0.1477 0.26944,-0.18566 0.48856,-0.3525 0.475,-0.41444 0.87848,-0.90729 1.25675,-1.40982 0.33729,-0.50475 0.69385,-0.99947 0.94381,-1.55461 0.23208,-0.49734 0.37795,-1.01745 0.45515,-1.559 0.0602,-0.56653 0.0642,-1.13731 0.0658,-1.70647 0.008,-0.66622 0.0161,-1.32923 -0.0628,-1.99152 -0.13437,-0.67814 -0.33638,-1.34282 -0.6326,-1.96759 -0.32323,-0.73381 -0.67426,-1.45393 -0.98031,-2.19543 -0.32393,-0.78744 -0.609,-1.58677 -0.8006,-2.41662 -0.17139,-0.87185 -0.29605,-1.74788 -0.36982,-2.63335 -0.0601,-0.86224 0.0669,-1.68803 0.36695,-2.49386 0.24304,-0.61555 0.56394,-1.20065 0.9595,-1.73095 1.25358,-1.42379 3.04995,-2.31325 4.78317,-3.02412 0.46756,-0.10746 0.9556,-0.298 1.44379,-0.28547 0.17042,0.004 0.59479,0.10446 0.76426,0.1413 0.73587,0.30712 1.30877,0.85662 1.82167,1.4507 0,0 -3.3456,2.01746 -3.3456,2.01746 v 0 c -0.46161,-0.53068 -0.97733,-1.03925 -1.67615,-1.22944 -0.7186,-0.10144 -1.41487,0.0457 -2.07663,0.34117 -1.35947,0.67724 -0.39238,0.20339 2.81862,-1.67006 0.0841,-0.0491 -0.1711,0.0934 -0.25176,0.14792 -0.003,0.002 -0.45764,0.35178 -0.4644,0.35786 -0.0737,0.0663 -0.13741,0.14289 -0.20611,0.21433 -0.43252,0.48245 -0.77076,1.04118 -1.02744,1.63653 -0.36128,0.7803 -0.48944,1.47743 -0.47319,2.34029 0.0688,0.86822 0.20284,1.72269 0.36329,2.57816 0.16655,0.81401 0.44726,1.59303 0.76689,2.35914 0.29472,0.73802 0.65836,1.44279 0.98241,2.16772 0.31677,0.66046 0.53666,1.3613 0.69296,2.07671 0.0903,0.67553 0.11473,1.34801 0.0967,2.03004 2.1e-4,0.58113 0.0144,1.16332 -0.0337,1.74314 -0.0587,0.56993 -0.16417,1.13257 -0.41636,1.65281 -0.21358,0.60423 -0.57499,1.11107 -0.91227,1.65134 -0.37944,0.52073 -0.77929,1.02274 -1.21439,1.49911 -1.44773,1.24901 -3.17616,2.16311 -4.92967,2.9138 -0.77206,0.31658 -1.5374,0.66192 -2.36348,0.81692 -0.81485,0.12223 -1.62697,0.11433 -2.42579,-0.11634 -0.93663,-0.31189 -1.76351,-0.82103 -2.50193,-1.47872 -0.9757,-0.84286 -1.91101,-1.78247 -2.57922,-2.89211 -0.48748,-0.87132 -0.85053,-1.73893 -0.7362,-2.76217 0.18982,-1.29284 0.60845,-2.52435 1.28728,-3.64772 1.34328,-2.23196 2.43223,-3.29032 5.46118,-4.09723 0.58632,-0.0561 1.17823,-0.0218 1.76391,0.0325 0.71245,0.0987 1.40118,0.26856 1.97979,0.72205 0.60268,0.46818 1.10043,1.02686 1.47452,1.69696 0.3201,0.59227 0.64159,1.19826 0.76512,1.8669 0,0 -3.49434,1.86823 -3.49434,1.86823 z"
       inkscape:connector-curvature="0" />
    <path
       style="opacity:1;fill:#1700ec;fill-opacity:1;stroke:none;stroke-width:1.36500001;stroke-linecap:round;stroke-linejoin:miter;stroke-miterlimit:4;stroke-dasharray:none;stroke-dashoffset:261.92126465;stroke-opacity:1"
       id="path4511"
       d="m 148.97434,140.05078 c 0.0198,-0.73951 -0.23729,-1.43761 -0.44516,-2.13551 -0.2088,-0.63428 -0.44143,-1.26198 -0.76526,-1.84705 -0.28492,-0.58498 -0.68264,-1.09493 -1.10613,-1.58399 -0.5114,-0.54081 -1.1685,-0.88784 -1.84094,-1.18552 -0.69843,-0.344 -1.46954,-0.48137 -2.22393,-0.64722 -0.69319,-0.11898 -1.40912,-0.24529 -2.11181,-0.15532 0.13577,-0.29066 -1.19067,0.54817 -0.85925,0.35938 5.41353,-3.08375 3.49196,-2.14379 2.41731,-1.28687 -0.74972,0.68726 -1.04097,1.67406 -1.2808,2.62983 -0.33299,1.2471 -0.19599,2.48361 0.0692,3.72414 0.38439,1.30611 0.9802,2.52967 1.64583,3.71186 0.65651,1.08031 1.38553,2.1167 2.19693,3.08596 0.67431,0.89845 1.54705,1.59978 2.43696,2.27044 0.78459,0.62654 1.70634,1.00781 2.62266,1.39161 0.5984,0.19895 1.24183,0.39397 1.87984,0.40218 0.23712,0.003 0.69531,-0.0821 0.92916,-0.12031 0.84661,-0.19853 1.63134,-0.53151 2.3689,-0.98761 -5.6501,3.55704 -2.52455,1.42457 -1.26933,0.50229 0.64536,-0.41848 1.08857,-1.04503 1.56836,-1.63058 0.50909,-0.62799 0.9363,-1.31617 1.3335,-2.01866 0.34927,-0.70576 0.5072,-1.48654 0.62393,-2.25979 0.10419,-0.92672 0.17799,-1.86526 0.0896,-2.7952 -0.17678,-1.17406 -0.58599,-2.30234 -0.98895,-3.415 -0.51371,-1.22163 -0.9214,-2.47341 -1.2089,-3.76597 -0.3697,-1.68361 -0.54021,-3.35968 -0.2912,-5.0689 0.22094,-1.17473 0.7128,-2.25607 1.378,-3.2407 1.43442,-1.99505 3.05991,-2.511 5.38289,-3.84472 0.97001,-0.36496 1.98666,-0.39946 2.99141,-0.18821 1.14591,0.29196 2.08749,1.00461 2.98769,1.73782 0.56528,0.4608 1.05811,1.00317 1.50076,1.58073 0,0 -3.35841,1.99378 -3.35841,1.99378 v 0 c -0.41163,-0.55798 -0.8759,-1.08194 -1.40811,-1.52832 -0.85597,-0.7044 -1.76596,-1.3596 -2.87995,-1.56927 -0.98192,-0.12258 -1.95885,-0.0492 -2.85729,0.40221 5.69267,-3.34573 3.14283,-2.01561 2.17575,-1.19731 -0.37476,0.31711 -0.68469,0.69717 -0.99332,1.0763 -0.69806,0.93373 -1.23712,1.96774 -1.50601,3.11004 -0.11742,0.60474 -0.19057,0.85332 -0.20766,1.4805 -0.0317,1.16457 0.15786,2.32676 0.41391,3.45786 0.33964,1.25864 0.72382,2.50454 1.22354,3.71027 0.41959,1.13464 0.85044,2.28261 1.06616,3.47536 0.13186,0.95176 0.0586,1.91814 -0.021,2.8734 -0.11059,0.80682 -0.25122,1.6169 -0.54867,2.37889 -0.38839,0.72914 -0.83695,1.42763 -1.32451,2.09418 -0.4856,0.58721 -0.89308,1.25887 -1.51447,1.71323 -1.72455,1.26412 -3.34228,2.52297 -5.37888,3.38159 -0.7707,0.41194 -1.58488,0.72875 -2.45405,0.85893 -1.00279,0.091 -1.9944,-0.0565 -2.92697,-0.44919 -0.93556,-0.40484 -1.86064,-0.84106 -2.66316,-1.4815 -0.89829,-0.70163 -1.77336,-1.4387 -2.46177,-2.35684 -0.81524,-0.99619 -1.54957,-2.05329 -2.21383,-3.15625 -0.67788,-1.21676 -1.28357,-2.4742 -1.70579,-3.80532 -0.29987,-1.28245 -0.46654,-2.57501 -0.15036,-3.87517 0.21198,-0.99117 0.44257,-2.02356 1.11332,-2.81727 1.20155,-1.16853 2.79785,-1.80375 4.2493,-2.6262 0.29679,-0.16816 0.62778,-0.22498 0.96348,-0.239 0.72577,0.003 1.45034,0.0966 2.15791,0.25786 0.77645,0.18159 1.56124,0.34367 2.27671,0.71229 0.7068,0.34736 1.39291,0.73438 1.93306,1.32103 0.44159,0.50883 0.86099,1.03838 1.15471,1.64941 0.34086,0.61134 0.57791,1.26842 0.7899,1.93435 0.20456,0.73033 0.46621,1.44435 0.55656,2.20174 0,0 -3.53134,1.79931 -3.53134,1.79931 z"
       inkscape:connector-curvature="0" />
    <path
       style="opacity:1;fill:#1700ec;fill-opacity:1;stroke:none;stroke-width:1.36500001;stroke-linecap:round;stroke-linejoin:miter;stroke-miterlimit:4;stroke-dasharray:none;stroke-dashoffset:261.92126465;stroke-opacity:1"
       id="path4513"
       d="m 176.25777,82.537995 c 0.26304,-0.443796 0.37515,-0.87512 0.22194,-1.369727 -0.27202,-0.589547 -0.75003,-1.033931 -1.22744,-1.457203 -0.70114,-0.633513 -1.55499,-1.016468 -2.40695,-1.398858 -1.43229,-0.648541 -2.95522,-1.015031 -4.49788,-1.280845 -1.09678,-0.197585 -1.89812,-0.131958 -2.90205,0.331602 -0.11246,0.05151 -0.22384,0.105461 -0.33739,0.15453 -0.10495,0.04535 -0.21697,0.07505 -0.31795,0.128665 -0.0989,0.0525 -0.37603,0.242591 -0.27833,0.187938 4.95658,-2.772756 3.72877,-2.355299 2.66315,-1.395859 -0.41475,0.396351 -0.46485,0.938067 -0.51328,1.478558 -0.0602,0.842309 0.0859,1.685602 0.33511,2.487265 0.45406,1.15084 1.07136,2.226477 1.60946,3.338301 0.61138,1.269929 1.17256,2.56421 1.62092,3.90076 0.50939,1.54006 0.85539,3.124012 1.20716,4.705239 0.31327,1.426268 0.43296,2.879471 0.49968,4.334648 0.068,1.202819 0.0377,2.403329 -0.10343,3.599271 -0.10133,0.88754 -0.34358,1.75011 -0.74968,2.54548 -0.99785,1.74088 -2.61726,2.1344 -4.49884,3.23278 -0.3582,0.10022 -0.76171,0.21739 -1.13957,0.18098 -0.0764,-0.007 -0.64795,-0.15862 -0.72308,-0.17809 -0.96717,-0.23829 -1.80981,-0.70689 -2.65251,-1.22083 -1.13869,-0.64834 -2.11116,-1.51568 -3.08303,-2.38285 -1.03339,-0.89601 -1.8247,-1.99576 -2.58938,-3.117666 -0.69918,-1.027231 -1.22202,-2.15995 -1.63821,-3.327199 -0.27738,-1.016431 -0.38583,-2.057918 -0.26697,-3.104271 0.11772,-0.572564 0.35319,-1.180677 0.89051,-1.48781 1.212,-0.692791 2.43838,-1.36012 3.65757,-2.040181 0.92469,-0.203867 1.69546,0.400608 2.37921,0.938654 0.91545,0.678857 1.5973,1.571943 2.24954,2.490862 0,0 -3.33691,1.964189 -3.33691,1.964189 v 0 c -0.61199,-0.898143 -1.25705,-1.765159 -2.16026,-2.398016 -0.67129,-0.465204 -1.38129,-0.925851 -2.2084,-0.569312 1.02422,-0.598929 2.05433,-1.187908 3.07266,-1.796788 0.0918,-0.05491 -0.1983,0.0818 -0.29171,0.134017 -0.40462,0.226205 -0.63159,0.6169 -0.76001,1.051729 -0.19538,0.987952 -0.11292,1.984997 0.15034,2.955798 0.3676,1.148424 0.88356,2.250892 1.5513,3.256748 0.7474,1.096643 1.53735,2.158474 2.54119,3.038796 0.9557,0.85849 1.94468,1.66636 3.06511,2.30587 0.83363,0.48021 1.6911,0.88319 2.63964,1.08181 0.59528,0.10906 1.17926,0.0675 1.71125,-0.24821 -6.9966,4.10412 -3.24614,2.17251 -2.48404,1.31681 0.10527,-0.11819 0.26267,-0.36394 0.34892,-0.493 0.49993,-0.7118 0.73964,-1.58004 0.87252,-2.43123 0.19205,-1.17502 0.19038,-2.361792 0.1558,-3.549763 -0.041,-1.441106 -0.13181,-2.884115 -0.4215,-4.299958 -0.33234,-1.569262 -0.71255,-3.130476 -1.20894,-4.656759 -0.44402,-1.319377 -1.01626,-2.590245 -1.62075,-3.843486 -0.55571,-1.120275 -1.16327,-2.215954 -1.66047,-3.364391 -0.30953,-0.825953 -0.47607,-1.708825 -0.45923,-2.594219 0.0202,-0.593772 0.0358,-1.219385 0.38289,-1.7263 1.27141,-1.464379 3.19708,-2.234136 4.962,-2.990157 0.97302,-0.326707 1.96076,-0.351705 2.9628,-0.103783 1.55519,0.335169 3.10212,0.733611 4.58049,1.329428 0.89664,0.393489 1.77573,0.809527 2.51059,1.473296 0.53116,0.46854 1.04969,0.9643 1.3627,1.611772 0.2233,0.602375 0.1952,1.04157 -0.0509,1.635274 0,0 -3.61534,1.635691 -3.61534,1.635691 z"
       inkscape:connector-curvature="0" />
    <path
       style="opacity:1;fill:#1700ec;fill-opacity:1;stroke:none;stroke-width:1.36500001;stroke-linecap:round;stroke-linejoin:miter;stroke-miterlimit:4;stroke-dasharray:none;stroke-dashoffset:261.92126465;stroke-opacity:1"
       id="path4515"
       d="m 163.16157,32.825864 c 0.28462,-0.552349 0.46943,-1.152369 0.61684,-1.754235 0.1293,-0.617535 0.19293,-1.250153 0.15829,-1.880386 -0.0345,-0.57454 -0.25395,-1.076285 -0.55483,-1.554411 -0.29413,-0.460711 -0.74185,-0.784235 -1.17752,-1.100042 -0.55632,-0.386935 -1.20066,-0.590969 -1.82124,-0.845878 -0.6029,-0.236509 -1.24114,-0.357045 -1.86995,-0.502125 -0.31507,-0.03284 -0.64254,-0.154128 -0.9629,-0.13583 -0.3628,0.02072 -0.7609,0.207789 -1.10344,0.313967 -0.13132,0.05335 -0.26227,0.107637 -0.39397,0.160044 -0.12681,0.05046 -0.2562,0.09452 -0.38152,0.148538 -0.11915,0.05136 -0.46362,0.232552 -0.35142,0.167387 5.51466,-3.202973 3.56745,-2.176937 2.5171,-1.353789 -0.50603,0.430002 -0.75416,1.04479 -0.919,1.671184 -0.18875,0.688488 -0.0827,1.366374 0.0458,2.052214 0.23456,1.015053 0.63275,1.981568 1.00014,2.954033 0.56202,1.380659 1.00876,2.802885 1.41154,4.236834 0.32273,1.150337 0.58403,2.310125 0.72491,3.496683 0.0996,0.962477 0.14121,1.925841 0.061,2.890218 -0.0985,0.783857 -0.31704,1.536634 -0.66965,2.241955 -0.36896,0.712078 -0.90803,1.31246 -1.46506,1.88164 -1.26684,1.107363 -2.85376,1.781408 -4.30513,2.601341 -0.32292,0.182425 -0.66965,0.274087 -1.02483,0.368676 -0.74547,0.173722 -1.49171,-0.14441 -2.09175,-0.572728 -0.82952,-0.63414 -1.53356,-1.387007 -2.18504,-2.198717 -0.75499,-0.902779 -1.40058,-1.810287 -1.80405,-2.919391 -0.26155,-0.738206 -0.30052,-1.481209 -0.17085,-2.246312 0.12408,-0.683075 0.5227,-1.258047 0.96229,-1.778445 1.32757,-1.279636 3.00461,-2.409224 4.86062,-2.567503 0.71302,0.04218 1.16351,0.540393 1.49644,1.123675 0.0404,0.09828 0.0807,0.196569 0.12111,0.294854 0,0 -3.42849,1.911921 -3.42849,1.911921 v 0 c -0.0308,-0.08278 -0.0617,-0.16556 -0.0925,-0.24834 -0.27327,-0.491331 -0.65206,-0.820182 -1.24774,-0.728007 -0.20542,0.03814 -0.30146,0.04769 -0.4992,0.117404 -0.0809,0.02851 -0.31064,0.143865 -0.23702,0.09991 5.53363,-3.303556 3.76782,-2.275242 2.64134,-1.520444 -0.446,0.451252 -0.89185,0.969234 -1.05536,1.593093 -0.18335,0.694904 -0.16044,1.383141 0.0435,2.075008 0.34169,1.063866 0.96642,1.9749 1.67916,2.829854 0.6591,0.761894 1.38439,1.458261 2.19767,2.056151 0.59154,0.348255 1.22979,0.524221 1.90082,0.288954 0.34752,-0.120902 0.3272,-0.103556 0.66369,-0.262615 0.10648,-0.05034 0.41691,-0.218996 0.31565,-0.158824 -5.46313,3.246477 -3.45773,2.106993 -2.34171,1.321549 0.57902,-0.511644 1.09613,-1.101855 1.50436,-1.759482 0.11454,-0.208156 0.2512,-0.405419 0.34501,-0.623708 0.20363,-0.473866 0.27777,-0.99546 0.40577,-1.49112 0.10969,-0.943287 0.0949,-1.887733 0.007,-2.833788 -0.12111,-1.173988 -0.36191,-2.321917 -0.66083,-3.463414 -0.37713,-1.42924 -0.79424,-2.845102 -1.3958,-4.199803 -0.39298,-0.982334 -0.85676,-1.941751 -1.09948,-2.975665 -0.15591,-0.728036 -0.31515,-1.451068 -0.13555,-2.193314 0.13892,-0.678556 0.35414,-1.363104 0.81362,-1.896593 1.49705,-1.383649 3.39063,-2.317578 5.31445,-2.964099 0.8585,-0.239289 1.34552,-0.264068 2.21025,-0.03409 0.64024,0.151729 1.28611,0.289864 1.8898,0.560921 0.65348,0.257601 1.32177,0.491856 1.89253,0.914041 0.47665,0.346934 0.94683,0.720376 1.26505,1.225618 0.32364,0.532896 0.57713,1.093155 0.63207,1.724064 0.0678,0.662739 0.005,1.335961 -0.1106,1.990855 -0.13421,0.617133 -0.32498,1.21662 -0.52606,1.814811 0,0 -3.61534,1.635694 -3.61534,1.635694 z"
       inkscape:connector-curvature="0" />
    <path
       style="opacity:1;fill:#1700ec;fill-opacity:1;stroke:none;stroke-width:1.36500001;stroke-linecap:round;stroke-linejoin:miter;stroke-miterlimit:4;stroke-dasharray:none;stroke-dashoffset:261.92126465;stroke-opacity:1"
       id="path4517"
       d="m 132.15132,39.254945 c 0.18497,-0.66018 0.18469,-1.333767 0.13083,-2.010132 -0.0577,-0.60992 -0.31318,-1.149368 -0.60187,-1.678971 -0.38477,-0.599821 -0.92514,-1.100403 -1.48367,-1.53837 -0.58005,-0.490299 -1.24765,-0.851942 -1.89975,-1.235207 -0.58693,-0.303578 -1.21651,-0.545468 -1.86024,-0.697982 -0.63109,-0.126555 -1.27641,-0.138252 -1.91764,-0.147044 -0.76041,-0.08306 -1.44927,0.159811 -2.15605,0.399528 -0.12378,0.05375 -0.25001,0.102193 -0.37136,0.161256 -0.22986,0.11189 -0.4546,0.234127 -0.67912,0.356391 -0.10486,0.0571 -0.41273,0.24031 -0.30897,0.181221 3.13799,-1.787125 4.01573,-2.475696 2.82753,-1.567217 -0.4983,0.419709 -0.93519,0.901287 -1.31818,1.426845 -0.37459,0.587857 -0.5247,1.282967 -0.64107,1.961195 -0.12249,0.786839 -0.13818,1.576358 -0.056,2.366748 0.14212,0.984459 0.56529,1.87779 1.00508,2.757837 0.3751,0.826259 0.8093,1.620186 1.26515,2.403874 0.57761,0.980223 1.14048,1.969305 1.65745,2.982942 0.47181,0.809625 0.78403,1.693997 1.11025,2.567905 0.31471,0.834454 0.50292,1.697435 0.66884,2.570412 0.1844,1.041347 0.26533,2.096389 0.32483,3.150981 0.0491,0.969523 -0.0586,1.930132 -0.24867,2.878523 -0.14512,0.623224 -0.41554,1.209159 -0.80584,1.715003 -1.31313,1.334029 -3.03664,2.413479 -4.91166,2.544659 -0.6449,0.07065 -1.25365,-0.0367 -1.83647,-0.312615 -0.7053,-0.355328 -1.3177,-0.855721 -1.89531,-1.387735 -0.69514,-0.691882 -1.42735,-1.347999 -2.08314,-2.077931 -0.62878,-0.674418 -1.11154,-1.46462 -1.52102,-2.286318 -0.3801,-0.765558 -0.70891,-1.556512 -0.89705,-2.391338 -0.11965,-0.704292 -0.28945,-1.397696 -0.38933,-2.105398 -0.0629,-0.527842 0.0482,-0.988214 0.3395,-1.425295 1.26903,-1.218001 2.86399,-2.291427 4.54088,-2.768272 0.6692,-0.13353 1.17317,-0.101925 1.79245,0.187381 0.51054,0.305318 0.96261,0.712001 1.36186,1.151673 0.28219,0.29151 0.58112,0.568822 0.84887,0.8739 0.18197,0.172347 0.36318,0.346377 0.52985,0.533945 0,0 -3.38136,2.051793 -3.38136,2.051793 v 0 c -0.17345,-0.182652 -0.35369,-0.35861 -0.5311,-0.537381 -0.27464,-0.296665 -0.55997,-0.58337 -0.83616,-0.878565 -0.36241,-0.395873 -0.75484,-0.788273 -1.24893,-1.013619 -0.5457,-0.177866 -1.10023,-0.148138 -1.63651,0.06561 -1.28181,0.658596 -0.37711,0.198316 2.96552,-1.7448 0.43912,-0.255267 -1.1971,0.755504 -0.7695,0.544494 -0.42606,0.359079 -0.46515,0.589613 -0.50332,1.1348 0.0779,0.70321 0.2333,1.391135 0.34434,2.089047 0.17273,0.806717 0.4788,1.573469 0.84413,2.312289 0.39068,0.791681 0.85571,1.549916 1.46166,2.197029 0.6533,0.713996 1.34854,1.390835 2.06858,2.037257 0.57074,0.486627 1.15432,0.97327 1.85671,1.259485 0.55914,0.199197 1.13277,0.236678 1.72106,0.150993 0.24848,-0.03839 0.34213,-0.04177 0.57935,-0.121171 0.0807,-0.02703 0.30912,-0.141328 0.23602,-0.09767 -5.50435,3.287726 -3.80378,2.279264 -2.66566,1.542381 0.42751,-0.439725 0.72079,-0.958284 0.90454,-1.546212 0.21942,-0.921877 0.41968,-1.846368 0.32323,-2.80289 -0.0323,-1.037476 -0.093,-2.07786 -0.29949,-3.097575 -0.17612,-0.848603 -0.33765,-1.696876 -0.65471,-2.508499 -0.31549,-0.863848 -0.594,-1.74693 -1.05003,-2.551014 -0.50615,-1.010597 -1.06102,-1.994951 -1.66879,-2.948215 -0.46725,-0.786802 -0.9087,-1.587667 -1.27658,-2.426724 -0.46305,-0.917054 -0.8774,-1.856925 -1.05231,-2.876854 -0.1394,-0.81855 -0.16998,-1.626709 -0.0314,-2.450299 0.10506,-0.716817 0.23741,-1.448818 0.55076,-2.106583 0.35345,-0.567701 0.79209,-1.066311 1.27664,-1.526619 1.41135,-1.316811 3.41099,-2.229591 5.23684,-2.984918 0.73884,-0.23073 1.47612,-0.384681 2.25549,-0.309296 0.66236,0.02146 1.32851,0.04939 1.97249,0.221681 0.66006,0.192958 1.30611,0.447011 1.89822,0.799873 0.66999,0.392581 1.35717,0.763849 1.94481,1.277974 0.58097,0.493665 1.15009,1.020501 1.57256,1.660282 0.31753,0.576233 0.59576,1.165746 0.67491,1.827607 0.0549,0.699169 0.0714,1.388911 -0.0376,2.085057 0,0 -3.56536,1.728858 -3.56536,1.728858 z"
       inkscape:connector-curvature="0" />
    <path
       style="opacity:1;fill:#1700ec;fill-opacity:1;stroke:none;stroke-width:1.36500001;stroke-linecap:round;stroke-linejoin:miter;stroke-miterlimit:4;stroke-dasharray:none;stroke-dashoffset:261.92126465;stroke-opacity:1"
       id="path4519"
       d="m 42.608428,26.037261 c -5.875314,3.365509 -2.831057,1.921058 -1.78974,0.572599 0.43815,-0.57171 0.584806,-1.261756 0.677627,-1.959256 0.10998,-0.727645 -0.15042,-1.421105 -0.433911,-2.078352 -0.256323,-0.68331 -0.616582,-1.303062 -1.053785,-1.884246 -0.459518,-0.620602 -1.008631,-1.128723 -1.655432,-1.544415 -0.849722,-0.509633 -1.790472,-0.80892 -2.738435,-1.073601 -0.839753,-0.21658 -1.705975,-0.265787 -2.568794,-0.289513 -0.758873,-0.02965 -1.507286,-0.01748 -2.258203,0.09199 -0.438838,0.05717 -0.881978,0.155715 -1.270635,0.373857 -0.107082,0.0601 -0.420341,0.253997 -0.313476,0.193507 1.00642,-0.569663 2.00823,-1.147431 3.012345,-1.721147 -0.592402,0.337802 -1.073671,0.808439 -1.499187,1.334586 -0.481471,0.640956 -0.761815,1.38867 -1.008039,2.142905 -0.35183,1.009504 -0.402508,2.078501 -0.447027,3.136383 -0.0235,1.091006 -0.06719,2.182729 0.07706,3.266527 0.118559,1.044916 0.516641,2.019252 0.871116,2.999825 0.452962,1.248148 0.984666,2.464493 1.47048,3.699809 0.43765,1.193194 0.927897,2.366184 1.355239,3.563093 0.345831,0.959284 0.611057,1.947439 0.80487,2.94812 0.175432,0.927166 0.203504,1.873133 0.223642,2.813978 0.03598,0.866955 -0.01802,1.732701 -0.158965,2.588366 -0.121478,0.675492 -0.337883,1.320073 -0.666117,1.921351 -0.962417,1.687709 -3.01983,2.299804 -4.617749,3.217773 -0.692785,0.256929 -1.447594,0.277844 -2.178924,0.30027 C 25.654055,50.72671 24.894014,50.5668 24.133284,50.386965 23.368382,50.187231 22.668758,49.879177 22.012985,49.440297 21.272544,48.921052 20.67007,48.248 20.073843,47.576066 19.370599,46.844372 18.800361,46.014109 18.289764,45.141402 17.860868,44.363588 17.510359,43.542869 17.258777,42.691308 17.028511,42.012858 16.850113,41.32242 16.753133,40.61268 c 0.01112,-0.681011 0.251483,-1.329253 0.592619,-1.910905 0.330526,-0.47878 0.692955,-0.928481 1.157526,-1.281626 1.814423,-1.416021 3.048382,-1.9597 4.916526,-2.505194 0.434599,-0.06042 0.919067,-0.241972 1.364652,-0.180372 0.102936,0.01423 0.1983,0.06221 0.297449,0.09332 0.542422,0.164471 0.984436,0.49366 1.335217,0.931067 0.325156,0.361767 0.585818,0.776298 0.85396,1.180734 0.149058,0.208 0.272021,0.43284 0.403125,0.652198 0,0 -3.401441,1.974617 -3.401441,1.974617 v 0 c -0.132481,-0.213262 -0.254977,-0.433054 -0.404355,-0.635264 -0.258488,-0.394319 -0.514064,-0.793597 -0.828525,-1.146519 -0.310325,-0.361865 -0.707181,-0.616921 -1.181213,-0.706491 -0.525817,-0.01923 -1.04679,0.08595 -1.548364,0.239565 -0.259378,0.08242 -0.527341,0.149436 -0.780299,0.250632 -1.22037,0.488198 -2.982663,2.182164 2.640937,-1.568387 -0.525203,0.25545 -0.879037,0.672859 -1.230246,1.129562 -0.374598,0.489172 -0.607806,1.051578 -0.713093,1.660409 0.07053,0.695751 0.21709,1.377106 0.444407,2.039609 0.231975,0.825182 0.568477,1.615927 0.970935,2.372598 0.499801,0.848749 1.039294,1.666608 1.730744,2.375622 0.585604,0.642255 1.201867,1.26142 1.922182,1.754402 0.633526,0.396338 1.315576,0.661403 2.043572,0.834131 0.740965,0.165161 1.486032,0.249375 2.246236,0.17875 0.715123,-0.0459 1.446654,-0.09469 2.088813,-0.446064 -1.021273,0.596122 -2.042982,1.191501 -3.063822,1.788364 -0.08845,0.05171 0.179914,-0.09835 0.26664,-0.152908 0.318672,-0.200475 0.587356,-0.476602 0.779803,-0.799727 0.329568,-0.578676 0.630444,-1.148556 0.737272,-1.81949 0.193683,-0.825478 0.24751,-1.678278 0.218062,-2.524561 -0.01466,-0.922401 -0.03358,-1.847927 -0.185346,-2.760263 -0.182613,-0.98511 -0.433512,-1.96107 -0.762016,-2.907721 -0.400812,-1.20329 -0.870151,-2.380924 -1.318776,-3.566892 -0.474273,-1.241531 -1.006057,-2.457307 -1.510392,-3.686519 -0.368173,-1.00176 -0.769657,-2.000898 -0.910972,-3.066413 -0.183644,-1.108974 -0.104976,-2.22652 -0.07893,-3.346243 0.03616,-1.073445 0.01954,-2.17019 0.341049,-3.205514 0.258043,-0.771215 0.487836,-1.555319 0.938551,-2.244387 0.380074,-0.579021 0.86286,-1.109699 1.458728,-1.470224 1.77945,-1.043332 3.288688,-2.384396 5.333402,-2.598001 0.760317,-0.07884 1.523889,-0.065 2.287002,-0.0339 0.878684,0.04594 1.757313,0.127236 2.604551,0.381086 0.974008,0.300674 1.938758,0.63238 2.819611,1.157046 0.673844,0.450697 1.249244,1.003014 1.734257,1.655043 0.450919,0.606175 0.840028,1.249769 1.104402,1.961142 0.304888,0.708732 0.595268,1.476503 0.535922,2.258559 -0.0837,0.731306 -0.192916,1.501882 -0.598607,2.130994 -1.085104,1.734142 -3.243569,2.485934 -4.909137,3.436407 0,0 3.11268,-2.44769 3.11268,-2.44769 z"
       inkscape:connector-curvature="0" />
    <path
       style="opacity:1;fill:#1700ec;fill-opacity:1;stroke:none;stroke-width:1.36500001;stroke-linecap:round;stroke-linejoin:miter;stroke-miterlimit:4;stroke-dasharray:none;stroke-dashoffset:261.92126465;stroke-opacity:1"
       id="path4521"
       d="m 16.638937,78.53509 c -0.527738,-0.36127 -1.129679,-0.585211 -1.748603,-0.730044 -0.786625,-0.121195 -1.593506,-0.201141 -2.387183,-0.116287 -0.123001,0.01619 -0.249065,0.01683 -0.369003,0.04855 -0.316244,0.08364 -0.98615,0.51172 -0.649828,0.320749 5.341632,-3.033112 3.479581,-2.230541 2.490704,-1.269503 -0.672423,0.711375 -0.927226,1.630916 -1.115251,2.564601 -0.241573,1.357389 0.02554,2.702108 0.568884,3.950306 0.828111,1.585947 2.368851,2.503064 3.88536,3.336713 1.161733,0.590439 2.403403,0.967092 3.709061,0.970531 0.595742,-0.02238 1.233485,-0.171111 1.76532,-0.456176 0.127325,-0.06825 0.487558,-0.309446 0.360985,-0.239815 -0.981461,0.539924 -1.951201,1.100886 -2.926801,1.65133 0.792058,-0.598183 1.378166,-1.415772 1.910944,-2.242399 0.375398,-0.588012 0.575882,-1.239882 0.669196,-1.924846 0.09304,-0.683506 0.03863,-1.363967 -0.07356,-2.040485 -0.194017,-1.134452 -0.680594,-2.19165 -1.050109,-3.275436 -0.436367,-1.206069 -0.787123,-2.439797 -1.187119,-3.657767 -0.278756,-0.855252 -0.522163,-1.753671 -0.49724,-2.659041 0.07427,-0.828379 0.518706,-1.438616 1.132518,-1.963198 1.260194,-0.718396 2.486197,-1.500404 3.780584,-2.155192 0.186233,-0.09421 0.413873,-0.05605 0.621975,-0.07193 0.902128,-0.06882 1.711561,0.03941 2.568361,0.315399 1.08862,0.415964 2.037781,1.102889 2.894944,1.880849 0.457218,0.437644 0.896935,0.892384 1.306383,1.374846 0,0 -3.335798,2.002176 -3.335798,2.002176 v 0 c -0.386056,-0.475139 -0.806389,-0.920279 -1.248029,-1.344501 -0.824783,-0.733587 -1.725911,-1.388332 -2.779716,-1.751066 -0.607288,-0.159972 -1.179453,-0.267305 -1.812826,-0.235762 -1.533838,0.07639 -3.547105,1.463686 1.609158,-1.454261 -0.635667,0.439274 -1.084183,0.876107 -1.241161,1.662205 -0.14841,0.851194 0.161696,1.730375 0.37584,2.547549 0.372866,1.225608 0.707087,2.46321 1.151324,3.666214 0.38163,1.094973 0.907366,2.149134 1.142054,3.2887 0.150299,0.704998 0.234,1.40956 0.160233,2.130949 -0.07787,0.739597 -0.257519,1.452978 -0.640954,2.099511 -0.515606,0.860512 -1.115766,1.700503 -1.857919,2.377956 -1.849644,1.1123 -3.652853,2.760524 -5.926006,2.727454 -1.326716,-0.100129 -2.564532,-0.521216 -3.722146,-1.180851 -1.115707,-0.65201 -2.28086,-1.337159 -3.194607,-2.267101 -0.349293,-0.355483 -0.6195,-0.823568 -0.885683,-1.238824 -0.5557413,-1.30851 -0.8538908,-2.715247 -0.6733312,-4.140486 0.1204482,-0.967359 0.3362566,-1.95317 0.9583672,-2.733082 1.059942,-1.378376 2.357274,-1.665076 4.157936,-2.678245 0.334335,-0.188118 0.734058,-0.219424 1.10641,-0.248483 0.8239,-0.0199 1.654208,0.04809 2.461505,0.216302 0.661157,0.189323 1.302236,0.45316 1.884386,0.823322 0,0 -3.34956,2.118567 -3.34956,2.118567 z"
       inkscape:connector-curvature="0" />
    <path
       style="opacity:1;fill:#1700ec;fill-opacity:1;stroke:none;stroke-width:1.36500001;stroke-linecap:round;stroke-linejoin:miter;stroke-miterlimit:4;stroke-dasharray:none;stroke-dashoffset:261.92126465;stroke-opacity:1"
       id="path4523"
       d="m 17.176063,153.29064 c -0.330087,-0.56201 -0.873285,-0.97608 -1.3473,-1.41573 -0.681841,-0.55085 -1.412174,-1.05612 -2.189081,-1.46372 -0.857221,-0.50048 -1.7869,-0.83159 -2.733442,-1.11576 -0.798672,-0.1962 -1.6268515,-0.3125 -2.4482938,-0.2411 -0.1239057,0.0151 -0.250866,0.0142 -0.3717166,0.0454 -0.1750983,0.0453 -0.519067,0.23282 -0.6726864,0.31134 0.9814051,-0.55138 1.950022,-1.12617 2.9442158,-1.65415 0.146358,-0.0777 -0.270401,0.19249 -0.3958209,0.3008 -0.123417,0.10659 -0.2328064,0.22841 -0.3492095,0.34261 -0.6743332,0.77739 -1.1224268,1.70316 -1.4298073,2.67742 -0.3423497,1.21562 -0.260359,2.44372 -0.018521,3.66529 0.412555,1.51471 1.1406245,2.9015 1.9555957,4.23234 0.878808,1.39018 1.994184,2.57657 3.280191,3.59124 1.086573,0.82292 2.281922,1.46352 3.561258,1.9253 1.17007,0.37513 2.382811,0.43053 3.59556,0.30252 0.608338,-0.0418 1.198588,-0.21349 1.766605,-0.4284 1.205545,-0.45613 3.689146,-2.0321 -2.111957,1.27659 0.627424,-0.38463 1.166082,-0.87915 1.602259,-1.4693 0.392503,-0.62301 0.716768,-1.28784 0.99271,-1.96986 0.257359,-0.63775 0.427074,-1.30492 0.649321,-1.955 0.193835,-0.62078 0.410881,-1.23558 0.566704,-1.86738 0.177291,-0.91187 0.177577,-1.8447 0.188123,-2.76988 0.01584,-1.02232 -0.110137,-2.03957 -0.25949,-3.04878 -0.182779,-1.12514 -0.544584,-2.20239 -0.976242,-3.25325 -0.548451,-1.2313 -1.130733,-2.44718 -1.628633,-3.70018 -0.539625,-1.29846 -0.920689,-2.65033 -1.199368,-4.02614 -0.181997,-1.00437 -0.211167,-2.02647 -0.234527,-3.04421 -0.05633,-0.90873 0.137216,-1.78682 0.372686,-2.65652 0.244871,-0.76048 0.655963,-1.44381 1.093087,-2.10621 0.37344,-0.5199 0.841375,-0.95276 1.350271,-1.33583 1.881381,-1.25715 3.02714,-2.24082 5.023893,-2.29999 0.730067,0.0563 1.415867,0.32434 2.090171,0.59328 0.708583,0.27695 1.42653,0.53284 2.117291,0.85264 0.09584,0.06 0.191685,0.11995 0.287525,0.17993 0,0 -3.290257,2.12811 -3.290257,2.12811 v 0 c -0.08492,-0.0489 -0.169837,-0.0978 -0.254755,-0.14662 -0.687731,-0.30377 -1.389014,-0.57389 -2.091449,-0.84156 -0.649044,-0.23617 -1.314963,-0.47602 -2.016619,-0.43821 -1.691551,0.18234 -3.58326,1.64737 1.785429,-1.45826 -0.537379,0.32197 -1.002024,0.73379 -1.406854,1.2124 -0.4882,0.60259 -0.867177,1.28876 -1.185826,1.9944 -0.239741,0.83452 -0.459789,1.67861 -0.418004,2.55613 4.23e-4,1.00414 0.01699,2.01147 0.164512,3.00677 0.224722,1.36534 0.598549,2.69811 1.123159,3.98014 0.509258,1.24526 1.1237,2.44424 1.659878,3.67827 0.45031,1.0746 0.850217,2.16801 1.047295,3.3214 0.15711,1.02807 0.307115,2.06531 0.277723,3.1082 -0.0068,0.93583 0.0303,1.87992 -0.09375,2.80907 -0.116721,0.65739 -0.368652,1.27371 -0.551248,1.91423 -0.228053,0.65192 -0.40975,1.31667 -0.642162,1.96671 -0.259617,0.70686 -0.602194,1.38251 -0.963495,2.04232 -0.370976,0.67282 -0.93365,1.19236 -1.552633,1.64101 -2.167901,1.25318 -3.878317,2.63424 -6.347759,2.8209 -1.261063,0.077 -2.518471,0.0265 -3.713706,-0.42868 -1.284775,-0.5169 -2.487321,-1.19632 -3.577443,-2.05573 -0.486756,-0.39511 -0.7971583,-0.62664 -1.2430812,-1.07156 -0.7946483,-0.79288 -1.4518039,-1.71358 -2.0810254,-2.63825 -0.8830972,-1.34071 -1.5982556,-2.78524 -2.0628285,-4.32676 -0.2904966,-1.2789 -0.4164718,-2.51316 -0.1115867,-3.80734 0.257474,-1.029 0.7151897,-1.98254 1.3461405,-2.83852 1.3649936,-1.63506 3.4227931,-2.9304 5.5527973,-3.14253 0.850703,0.003 1.697848,0.10855 2.512961,0.36091 0.951903,0.31813 1.887272,0.67702 2.756455,1.18645 0.801542,0.43863 1.582529,0.92627 2.276077,1.52461 0.499508,0.45813 1.040292,0.89156 1.439008,1.44397 0,0 -3.408327,2.02267 -3.408327,2.02267 z"
       inkscape:connector-curvature="0" />
    <path
       style="opacity:1;fill:#1700ec;fill-opacity:1;stroke:none;stroke-width:1.36500001;stroke-linecap:round;stroke-linejoin:miter;stroke-miterlimit:4;stroke-dasharray:none;stroke-dashoffset:261.92126465;stroke-opacity:1"
       id="path4525"
       d="m 27.114402,209.23836 c 0.162592,-0.6922 -0.121891,-1.2966 -0.466402,-1.87917 -0.379104,-0.56443 -0.938342,-0.91655 -1.504372,-1.2639 -0.563901,-0.31322 -1.177673,-0.51226 -1.786707,-0.71644 -0.392061,-0.0801 -0.823357,-0.23915 -1.230929,-0.20486 -0.06264,0.005 -0.521252,0.15192 -0.576617,0.16919 0.727034,-0.48632 -1.598779,0.84686 -0.83291,0.40731 5.577996,-3.20136 3.621077,-2.26511 2.601895,-1.39977 -0.536862,0.45894 -0.861392,1.06679 -1.13201,1.70656 -0.344801,0.98521 -0.393171,2.03618 -0.394317,3.07025 -0.0211,1.26952 0.288495,2.47228 0.677844,3.66628 0.476346,1.30185 1.244266,2.45543 2.04967,3.57202 0.697647,0.97819 1.533889,1.83484 2.539226,2.49248 0.813462,0.50535 1.691458,0.88338 2.613078,1.13674 0.9393,0.19077 1.911503,0.26853 2.867353,0.19134 0.822748,-0.0629 1.592546,-0.35404 2.354691,-0.64751 1.057601,-0.58261 3.236061,-1.78474 -2.747325,1.57348 -0.09563,0.0537 0.184029,-0.11942 0.27405,-0.18206 0.243592,-0.1695 0.472438,-0.35096 0.694939,-0.54682 0.440449,-0.35968 0.805307,-0.76293 1.079204,-1.26104 0.2917,-0.68123 0.357468,-1.42457 0.398269,-2.15636 0.02008,-0.81632 -0.196887,-1.59062 -0.467987,-2.35042 -0.388231,-1.04645 -0.82001,-2.07513 -1.212911,-3.11976 -0.471963,-1.13025 -0.89395,-2.27047 -1.173705,-3.46353 -0.33202,-1.4823 -0.564896,-2.98349 -0.780608,-4.48631 -0.175175,-1.41865 -0.309917,-2.84206 -0.487352,-4.26062 -0.168328,-1.16886 -0.291806,-2.34321 -0.352041,-3.52253 0.03748,-1.16456 0.425402,-2.26372 0.913625,-3.30801 0.471466,-0.94356 0.989872,-1.86779 1.633291,-2.70517 1.383202,-1.54425 3.299815,-2.73866 5.266306,-3.33577 0.873578,0.024 1.639639,0.50262 2.322852,1.00746 0.729866,0.59279 1.451837,1.19435 2.150303,1.82393 0.550431,0.55887 1.095473,1.13347 1.704509,1.62952 0.08137,0.0736 0.162745,0.14724 0.244115,0.22086 0,0 -3.331408,2.06089 -3.331408,2.06089 v 0 c -0.07599,-0.071 -0.151985,-0.14196 -0.227978,-0.21295 -0.591024,-0.52228 -1.140426,-1.08941 -1.692551,-1.65217 -0.681529,-0.62384 -1.383088,-1.22487 -2.114952,-1.78933 -0.628658,-0.41968 -1.351446,-0.88201 -2.135727,-0.68328 -1.39519,0.58614 -0.320627,0.15103 2.687463,-1.62627 0.112411,-0.0664 -0.234966,0.11556 -0.343863,0.1876 -0.356907,0.2361 -0.672404,0.54658 -0.966605,0.85352 -0.694309,0.78529 -1.205212,1.70844 -1.694011,2.63148 -0.496522,0.9903 -0.897451,2.01166 -0.982649,3.12937 0.04449,1.17629 0.12455,2.35106 0.294211,3.51684 0.185211,1.41816 0.297651,2.84512 0.466371,4.26531 0.211942,1.48901 0.429294,2.97827 0.776684,4.44308 0.315503,1.16447 0.710589,2.29891 1.180621,3.4107 0.392629,1.04487 0.827164,2.07116 1.249381,3.10437 0.29676,0.80195 0.545928,1.61165 0.562002,2.47633 -0.03484,0.77175 -0.09978,1.54384 -0.327435,2.28701 -0.210214,0.5535 -0.517912,1.04087 -1.00602,1.39256 -1.354011,1.37717 -3.210325,2.23443 -4.919062,3.04852 -0.77806,0.28472 -1.578134,0.51998 -2.413341,0.53945 -0.986595,0.0127 -1.987423,-0.0457 -2.945212,-0.29614 -0.938295,-0.30251 -1.841891,-0.70054 -2.666401,-1.2469 -1.002703,-0.72691 -1.855839,-1.61063 -2.546557,-2.64303 -0.819126,-1.15148 -1.659689,-2.31311 -2.148057,-3.65179 -0.392605,-1.23039 -0.728362,-2.46201 -0.723271,-3.7682 -0.04626,-1.06297 -0.0068,-2.142 0.271635,-3.17496 0.228051,-0.67685 0.52137,-1.34617 1.035134,-1.85792 1.337522,-1.38709 3.162715,-2.25826 4.973239,-2.87524 0.657659,-0.11652 1.309334,-0.001 1.936876,0.21898 0.626261,0.22648 1.264052,0.43689 1.834602,0.78842 0.611503,0.38466 1.183513,0.8197 1.58023,1.43719 0.387807,0.65349 0.703363,1.32201 0.662977,2.10033 0,0 -3.565353,1.72886 -3.565353,1.72886 z"
       inkscape:connector-curvature="0" />
    <path
       style="opacity:1;fill:#1700ec;fill-opacity:1;stroke:none;stroke-width:1.36500001;stroke-linecap:round;stroke-linejoin:miter;stroke-miterlimit:4;stroke-dasharray:none;stroke-dashoffset:261.92126465;stroke-opacity:1"
       id="path4527"
       d="m 33.500438,263.83103 c -0.06259,-0.6354 -0.268666,-1.23275 -0.574553,-1.78901 -0.507278,-0.65185 -1.07278,-1.25614 -1.675837,-1.82015 -0.668668,-0.62902 -1.39922,-1.18736 -2.196205,-1.64253 -0.974045,-0.53277 -2.031953,-0.89255 -3.089404,-1.21999 -0.968611,-0.27819 -1.956029,-0.39165 -2.940808,-0.15802 -0.153172,0.0427 -0.309959,0.0741 -0.459518,0.12812 -0.314406,0.11355 -0.583311,0.27085 -0.871212,0.43724 -0.14422,0.0833 -0.574207,0.33794 -0.429335,0.25572 2.911303,-1.65212 3.822991,-2.2855 2.500689,-1.38796 -0.853272,0.52977 -1.347859,1.33325 -1.760586,2.22097 -0.444394,1.07996 -0.472637,2.24262 -0.447467,3.39171 0.126033,1.51264 0.658772,2.94165 1.28423,4.31092 0.651602,1.38694 1.492891,2.66927 2.412396,3.89075 0.933268,1.19472 2.048004,2.23123 3.210729,3.1977 1.230456,1.05513 2.600367,1.90849 4.047218,2.62848 1.155554,0.53459 2.397601,0.81912 3.668469,0.82007 1.039315,-0.0228 2.03963,-0.40568 2.971117,-0.84381 1.205301,-0.63457 3.417882,-1.8502 -2.012267,1.17888 -0.130194,0.0726 0.250351,-0.16208 0.37198,-0.24828 0.338153,-0.23969 0.429286,-0.32534 0.747831,-0.58931 0.637043,-0.51041 1.162437,-1.13067 1.688166,-1.74956 0.43415,-0.48675 0.754156,-1.03854 1.002822,-1.63761 0.262485,-0.70765 0.301228,-1.46532 0.337404,-2.21136 0.01688,-1.3625 -0.358849,-2.6647 -0.785011,-3.94407 -0.527515,-1.60461 -1.205007,-3.15141 -1.833123,-4.71746 -0.86428,-2.14111 -1.243131,-4.44399 -1.532858,-6.72366 -0.210362,-1.50971 -0.02003,-3.00351 0.45213,-4.44136 1.201137,-2.70729 2.476321,-2.72136 5.479042,-4.40486 1.582084,-0.39404 2.750275,0.0755 4.047541,0.95155 1.380841,1.00421 2.443837,2.35692 3.528591,3.65773 0.618903,0.73043 1.202434,1.48916 1.843733,2.20014 0,0 -3.292035,1.9819 -3.292035,1.9819 v 0 c -0.601226,-0.74357 -1.157248,-1.52275 -1.787626,-2.24279 -1.039976,-1.29138 -2.10639,-2.59743 -3.483504,-3.54626 -1.313106,-0.79949 -2.324632,-1.15467 -3.84343,-0.62622 0.889997,-0.53704 1.779998,-1.07407 2.669995,-1.61111 -0.158184,0.0999 -0.329007,0.18206 -0.474554,0.29957 -0.544338,0.43951 -0.869098,1.12425 -1.206648,1.71573 -0.545973,1.38717 -0.789924,2.86287 -0.660879,4.35499 0.191119,2.26655 0.624988,4.50602 1.543132,6.60025 0.637394,1.57013 1.323607,3.12029 1.849821,4.73352 0.443598,1.30476 0.894665,2.61979 0.956556,4.00923 -0.01704,0.77795 -0.04767,1.5622 -0.258614,2.31645 -0.226571,0.64222 -0.511641,1.24124 -0.958051,1.7639 -0.540774,0.62833 -1.050459,1.28667 -1.693468,1.81747 -1.688095,1.48736 -3.699659,2.54278 -5.724324,3.51071 -0.976294,0.40335 -1.991855,0.74633 -3.063642,0.69717 -1.296099,-0.082 -2.549671,-0.4006 -3.712232,-0.99221 -1.460756,-0.75345 -2.823395,-1.65468 -4.095786,-2.69872 -1.182769,-0.98658 -2.309037,-2.05685 -3.262932,-3.2697 -0.92863,-1.24682 -1.77645,-2.55907 -2.437718,-3.96928 -0.648794,-1.41094 -1.212988,-2.87062 -1.38669,-4.426 -0.05653,-1.18596 -0.07312,-2.38655 0.326787,-3.52359 0.377895,-0.92248 0.824527,-1.83191 1.670221,-2.41205 1.536959,-1.12088 0.353958,-0.27783 4.107686,-2.46378 0.574786,-0.33472 1.180405,-0.61324 1.842728,-0.71828 1.033612,-0.13193 2.04486,-0.003 3.036518,0.32224 1.075251,0.36117 2.16308,0.7273 3.158149,1.27797 0.803688,0.49495 1.566143,1.05346 2.245302,1.71186 0.629449,0.59496 1.234053,1.22186 1.762191,1.90932 0.326779,0.58603 0.550907,1.20915 0.681482,1.8685 0,0 -3.494339,1.86823 -3.494339,1.86823 z"
       inkscape:connector-curvature="0" />
  </g>
</svg>
