<?xml version="1.0" encoding="UTF-8" standalone="no"?>
<!-- Created with Inkscape (http://www.inkscape.org/) -->

<svg
   xmlns:dc="http://purl.org/dc/elements/1.1/"
   xmlns:cc="http://creativecommons.org/ns#"
   xmlns:rdf="http://www.w3.org/1999/02/22-rdf-syntax-ns#"
   xmlns:svg="http://www.w3.org/2000/svg"
   xmlns="http://www.w3.org/2000/svg"
   xmlns:sodipodi="http://sodipodi.sourceforge.net/DTD/sodipodi-0.dtd"
   xmlns:inkscape="http://www.inkscape.org/namespaces/inkscape"
   width="20mm"
   height="20mm"
   viewBox="0 0 20 20"
   version="1.1"
   id="svg4544"
   inkscape:version="0.92.1 r15371"
   sodipodi:docname="logo.svg">
  <defs
     id="defs4538" />
  <sodipodi:namedview
     id="base"
     pagecolor="#ffffff"
     bordercolor="#666666"
     borderopacity="1.0"
     inkscape:pageopacity="0.0"
     inkscape:pageshadow="2"
     inkscape:zoom="2.8"
     inkscape:cx="74.255888"
     inkscape:cy="43.728856"
     inkscape:document-units="mm"
     inkscape:current-layer="layer1"
     showgrid="false"
     inkscape:snap-bbox="true"
     inkscape:bbox-nodes="true"
     inkscape:snap-page="true"
     inkscape:window-width="1920"
     inkscape:window-height="1001"
     inkscape:window-x="-9"
     inkscape:window-y="-9"
     inkscape:window-maximized="1" />
  <metadata
     id="metadata4541">
    <rdf:RDF>
      <cc:Work
         rdf:about="">
        <dc:format>image/svg+xml</dc:format>
        <dc:type
           rdf:resource="http://purl.org/dc/dcmitype/StillImage" />
        <dc:title></dc:title>
      </cc:Work>
    </rdf:RDF>
  </metadata>
  <g
     inkscape:label="Layer 1"
     inkscape:groupmode="layer"
     id="layer1"
     transform="translate(0,-277)">
    <path
       style="opacity:1;fill:#1700ec;fill-opacity:1;stroke:none;stroke-width:1.36500001;stroke-linecap:round;stroke-linejoin:miter;stroke-miterlimit:4;stroke-dasharray:none;stroke-dashoffset:261.92126465;stroke-opacity:1"
       id="path4509"
       d="m 8.7489231,290.4939 c -0.03434,-0.47723 -0.260661,-0.89837 -0.4837461,-1.31105 -0.25238,-0.46101 -0.5955209,-0.82971 -1.0129908,-1.14096 -0.4078204,-0.2875 -0.8881927,-0.35481 -1.3725103,-0.39378 -0.4081573,0.0111 -0.8560496,-0.0983 -1.2399719,0.061 0.097079,-0.0943 -0.4966331,0.24597 -0.3760881,0.17751 4.2593805,-2.41862 2.5035124,-1.61715 1.871442,-0.95254 -0.2955343,0.31075 -0.4372978,0.558 -0.6766891,0.91608 -0.4949198,0.776 -0.7857609,1.63561 -0.9312218,2.5381 -0.099202,0.68549 0.1282402,1.26815 0.4566052,1.85333 0.4392307,0.81501 1.0957704,1.4685 1.8067695,2.04749 0.5361706,0.44835 1.1316246,0.78528 1.8073471,0.96029 0.5690376,0.1353 1.130922,0.096 1.6969582,-0.0205 0.593632,-0.14833 1.13462,-0.43248 1.702633,-0.64925 0.894422,-0.45519 2.252874,-1.27571 -1.835735,1.0692 -0.06033,0.0346 0.119608,-0.071 0.178021,-0.10879 0.167338,-0.10812 0.197277,-0.13593 0.35771,-0.25809 0.347783,-0.30344 0.643201,-0.66429 0.92016,-1.03223 0.246955,-0.36957 0.508018,-0.73179 0.691032,-1.13825 0.169922,-0.36414 0.276724,-0.74495 0.333248,-1.14145 0.04408,-0.4148 0.04701,-0.83271 0.04818,-1.24943 0.0059,-0.48779 0.01179,-0.97323 -0.04598,-1.45815 -0.09838,-0.49651 -0.246288,-0.98318 -0.463173,-1.44061 -0.23666,-0.53727 -0.493674,-1.06453 -0.717756,-1.60744 -0.237173,-0.57653 -0.445894,-1.16179 -0.586177,-1.76938 -0.125488,-0.63835 -0.216761,-1.27976 -0.270773,-1.92808 -0.044,-0.6313 0.04898,-1.23593 0.26867,-1.82594 0.177949,-0.45068 0.412903,-0.87908 0.702521,-1.26735 0.917837,-1.04246 2.233091,-1.69369 3.502108,-2.21417 0.342335,-0.0787 0.699665,-0.21819 1.057104,-0.20902 0.124777,0.003 0.43549,0.0765 0.559572,0.10345 0.538784,0.22485 0.958245,0.62718 1.333777,1.06216 0,0 -2.449558,1.47712 -2.449558,1.47712 v 0 c -0.337978,-0.38854 -0.715575,-0.7609 -1.227233,-0.90015 -0.526139,-0.0743 -1.03593,0.0335 -1.520452,0.24979 -0.995367,0.49586 -0.28729,0.14891 2.063717,-1.22278 0.06158,-0.036 -0.125274,0.0684 -0.184332,0.10835 -0.0022,0.001 -0.335071,0.25756 -0.340021,0.26201 -0.05396,0.0486 -0.100604,0.10467 -0.150908,0.15693 -0.316679,0.35323 -0.56433,0.76232 -0.752264,1.19822 -0.264519,0.57131 -0.358355,1.08173 -0.346457,1.7135 0.05037,0.63568 0.148514,1.26131 0.265991,1.88766 0.121945,0.59599 0.327472,1.16638 0.561496,1.7273 0.215787,0.54036 0.482035,1.05638 0.719295,1.58714 0.23193,0.48358 0.392928,0.99671 0.507366,1.52052 0.06612,0.49461 0.084,0.98697 0.0708,1.48634 1.54e-4,0.42549 0.01058,0.85176 -0.02468,1.27628 -0.04298,0.41729 -0.120201,0.82924 -0.304847,1.21014 -0.156377,0.4424 -0.420992,0.8135 -0.66794,1.20907 -0.277815,0.38127 -0.570575,0.74882 -0.889144,1.09761 -1.059988,0.91449 -2.325499,1.58377 -3.6093725,2.13341 -0.5652806,0.23178 -1.125643,0.48463 -1.730476,0.59812 -0.5966121,0.0895 -1.1912243,0.0837 -1.7760987,-0.0852 -0.6857753,-0.22836 -1.2911947,-0.60114 -1.831846,-1.08268 -0.7143814,-0.61712 -1.3991904,-1.30507 -1.8884359,-2.11752 -0.3569197,-0.63796 -0.6227352,-1.2732 -0.5390258,-2.0224 0.1389811,-0.94658 0.4454907,-1.84825 0.9425118,-2.67075 0.9835138,-1.63419 1.7808137,-2.40909 3.9985297,-2.99989 0.4292874,-0.0411 0.8626681,-0.0159 1.2914878,0.0238 0.5216361,0.0723 1.0259062,0.19663 1.4495493,0.52867 0.4412663,0.34279 0.8057053,0.75184 1.0796043,1.24246 0.23437,0.43365 0.469756,0.87735 0.560201,1.36691 0,0 -2.5584631,1.36786 -2.5584631,1.36786 z"
       inkscape:connector-curvature="0" />
  </g>
</svg>
