<svg version="1" xmlns="http://www.w3.org/2000/svg" width="933.333" height="933.333" viewBox="0 0 700.000000 700.000000"><path d="M554 .7c-1.4.3-7.7 1.8-14 3.4-11.6 2.9-14.1 3.8-26 9.2-3.6 1.6-9.1 4-12.2 5.3-5.5 2.3-25.7 12.6-34.5 17.5-19.2 10.9-38.7 25.3-52.7 39.2C408.7 81 404 85.9 404 86.2c0 .3-2.5 4.3-5.7 8.9-12.9 19.2-23.3 46.3-26.1 67.9-1.4 11.3-.7 37.7 1.4 51.1.2 1.4.6 5.2.9 8.5.3 3.2.8 6.6 1 7.4.2.8.6 2.8.9 4.5 2.5 16.4 5.3 30.7 7.8 39 1.5 5.5 3 10.4 3.1 11 .1.5.5 1.4.8 2 .4.5.9 2.3 1.3 4 2.1 9.3 18.2 47.9 34.6 83 11.3 24.3 18.3 48.2 19.5 66.5 1.2 18.4.6 63-1 81.8-1.5 16.8-8.4 37.4-18.4 54.7-3.2 5.6-18 28.4-19.1 29.5-.3.3-3.2 3.9-6.5 8-11.6 14.7-13.6 16.2-26.5 20.3-10.7 3.3-16.4 4.6-28 6.4-10.4 1.5-30.8.7-41.2-1.6-10.5-2.4-31-10.6-38.2-15.3-1.1-.7-4.5-2.8-7.5-4.7-18.5-11.3-50.2-40.1-64.6-58.6-21.6-27.7-34.6-57.5-34.7-79.5-.1-27.5 14.4-71.7 33.2-100.9l5-7.8 5.2.3c8.1.4 18.6 1.4 20 1.9.7.2 3 .7 5.2 1 22.1 3.2 46.2 22.6 62.1 50.1 9.6 16.4 15.6 31.1 17 41.2.4 2.9.8 5.2 1 5.2.4 0 4.7-2.3 18-9.5 3.3-1.8 10.1-5.4 15-8 9.3-4.9 20.3-10.8 29-15.5 2.8-1.5 9.5-5.1 15-8 5.5-2.9 10.5-5.7 11.1-6.1.8-.7.5-3.3-1.3-9.7-1.3-4.8-2.9-9.1-3.4-9.7-.5-.5-.9-1.5-.9-2.2 0-2-12.2-26.2-16.6-32.9-14.9-22.8-35.8-41.5-54-48.3-16.2-6.1-33.9-8.6-60.4-8.6-15.4 0-15.6 0-29.5 4.3-40.8 12.7-64.1 25.6-86.6 48.1-20.4 20.5-44.2 56.9-55.3 84.6-1.6 3.8-3.4 8.3-4.1 10-.7 1.6-1.8 4.6-2.3 6.5-.6 1.9-2 6.6-3.2 10.5-2.2 7.6-4.9 18.9-5.7 24.5-.2 1.9-.8 5.1-1.2 7-5 23.1 6.5 59.4 28.3 89 18.9 25.7 53.6 59.5 77.7 75.8 12.9 8.6 35.3 19.7 44.1 21.7 13.4 3 18.9 3.7 32.8 3.8 27.8.3 36.8-1.7 73.5-16.4 30.4-12.1 65.8-29.3 87.5-42.4 22.2-13.4 49-32.9 55.5-40.5 1.6-1.9 3.7-4.1 4.5-5 .8-.9 3.5-4 6-7 29.2-35.1 46.5-68 51.5-98 2.7-16 2.7-89.8 0-104.5-4.1-22.5-9.3-37.1-27.4-76.3-17.9-38.8-27.2-62.7-32.6-84.2-2.3-9-7.8-39.2-8.9-49-.3-2.5-.8-5.6-1.1-7-1.1-5.5-1.9-19.1-1.8-29.3.1-9.5.5-13.3 2.9-26.2 2-11.2 17.1-45.6 22.6-51.5 1.5-1.6 2.9-1.9 9.5-1.5 15.1.7 25.6 6.6 42.6 23.7 4.3 4.3 8.1 7.8 8.3 7.8.3 0 5.9-3.3 12.5-7.3 6.6-3.9 12.7-7.7 13.7-8.2.9-.6 14.7-8.8 30.5-18.4l28.9-17.3-3.4-3.6c-18.3-19.8-35.5-32.1-48.3-34.7-2.2-.5-4.7-1-5.5-1.2-2.6-.6-17.4-1-20-.6z"/></svg>